<?xml version="1.0" encoding="UTF-8"?>
<svg id="Layer_1" data-name="Layer 1" xmlns="http://www.w3.org/2000/svg" viewBox="0 0 284.33 69.99">
  <path d="m1.3,48.49v-.43c-.87-.72-.58-1.74-.72-2.75-.14-.72-.14-1.3-.29-2.03-.14-.58-.14-1.16,0-1.74-.43-3.91-.14-7.67-.29-11.57.29-1.3.14-2.6.29-3.91.14-.29.29-.72.58-.87.72.43.58,1.16.58,1.74v13.45c.43-.72.14-1.59.87-2.03.58.14.58.72.58,1.16.14,3.04.43,6.08,1.01,9.11v.43c.29,1.3.72,2.89,1.01,4.34l.43,1.74c.43,1.74,1.16,3.62,1.88,5.21.14.29.14.43.29.58,1.01,1.88,2.31,3.62,4.34,4.63,1.59.87,3.33,1.45,5.35,1.59h.87c.14,0,.29,0,.43.14,3.91.14,7.81,0,11.72,0h133.36c.58,0,1.16,0,1.88.14.72.29.29.58,0,.87-.58.29-1.3.29-2.03.29-7.38.14-14.75,0-22.28.14-8.53,0-17.07.29-25.6.14-.58,0-1.3,0-1.88-.14s-1.16-.14-1.74,0h-.87c-1.16-.14-2.31-.14-3.62.14-4.19.14-8.39.14-12.58,0-.87-.29-1.59-.29-2.46-.29-8.39.14-16.78.14-25.02.14-7.09,0-14.18,0-21.41-.14-4.19,0-8.39.14-12.44,0-4.92-.14-9.69-.14-14.61-.14-1.74,0-3.33.58-5.06.58-.43.14-.72,0-1.16-.14-.43,0-.87-.29-1.3-.43-3.18-1.3-5.5-3.76-6.8-6.94-1.59-3.76-3.04-8.1-3.33-12.58v-.43h0Z" style="fill: #010000;"/>
  <path d="m213.64,49.22c-2.6.29-5.21.72-7.67,1.74-.29.43-.72.58-1.3.43-.72.14-1.16.72-1.74,1.01-.87,1.01-1.88,1.59-3.04,2.17-1.74,1.74-3.47,3.33-5.06,4.92-.29.29-.72.58-1.01.87-.29.58-.58.87-1.3,1.01-1.16.72-2.31,1.3-3.47,2.03-1.3,1.3-3.04,1.88-4.77,2.46-1.01.14-1.74.72-2.75,1.01-.14.14-.43.29-.72.29-.72.29-1.45.43-2.31.72-1.45-.43-1.59-.58-1.59-2.03.14-.29.58-.43.87-.43,4.19-1.16,8.1-3.04,11.86-5.35.58-.29,1.01-.58,1.45-1.01.87-.58,1.74-1.3,2.6-1.88.29-.29.58-.43.87-.72.29-.29.58-.43.72-.72.14-.14.14-.29.29-.29.87-.87,1.74-1.74,2.6-2.6.14-.14.29-.29.29-.29,1.88-1.74,4.05-2.89,6.51-3.91.43-.14.87-.29,1.3-.43,1.01-.29,2.03-.43,3.04-.58.43-.14.87-.14,1.45-.29,1.74-.43,3.47-.29,5.06-.29,1.01,0,2.03-.14,3.04-.14,1.01.14,2.03.29,3.04,0,1.59-.14,3.33,0,4.92-.14h2.17c.58,0,1.16-.14,1.88-.14.72.14,1.59.29,2.31,0,.43-.14,1.01,0,1.45-.14h6.65c.14,0,.29,0,.43.14.43,1.16-.43.87-1.01,1.01-.72,0-.87.29-.58.87,0,.29-.14.29-.29.29h-.72c-1.16-.14-2.17-.14-3.18,0h-3.91c-.43.14-.87.14-1.3,0-3.18.43-6.36,0-9.55.29-1.45.14-2.75.14-4.19.14-.58-.14-1.01-.14-1.59,0h-1.74Z"/>
  <path d="m267.88,48.93c-1.3,0-2.46-.72-3.62-.72-.58-.29-1.16,0-1.74-.14-1.01.29-2.17.14-3.18.29-.58.14-1.3,0-1.88.14h-1.3c-.72,0-1.59-.14-2.31.14h-1.74c-.58-.29-1.16,0-1.74-.14-.43-.29-.87-.43-1.3-.58-.58-.14-1.01-.58-.72-1.3.29-.29.58-.29,1.01-.29h4.48c.58,0,1.16-.14,1.88-.14.87.14,1.59.14,2.31,0,1.3-.14,2.75,0,4.05-.14.87.14,1.88.14,2.75.14,1.3-.14,2.46.72,3.76.72h3.91c1.01,0,1.88-.14,2.75-.58,1.01-.58,2.31-.43,3.33-.58,1.45-.14,2.17-.87,2.6-2.17.43-1.45.43-3.04.87-4.48.29-1.01.14-1.88,0-2.75-.58-3.18-.29-6.36-.72-9.55-.14-.72.72-1.01.87-1.59-.58,0-.58.58-.87.72-.58,0-.72-.43-.87-.72,0-.72-.14-1.3-.87-1.59-.43-.14-.87-.43-.58-1.16,2.46.29,4.19,1.3,4.63,3.91-.72.72-.43,1.3,0,2.03.58.87.14,1.88.29,2.89v2.03c-.29,1.45.29,2.75.29,4.19.14.72.14,1.45,0,2.17-.14,2.03-.43,3.91-1.16,5.79-.72,2.03-2.46,2.75-4.48,2.75-1.16,0-2.17,0-3.18.87-.29.29-.72.14-1.16.14-.72-.14-1.3-.14-2.03,0h-.43c-1.45-.43-2.6-.43-3.91-.29h0Z"/>
  <path d="m14.03,69.03c1.88-.14,3.76-.72,5.79-.72,2.75.14,5.64,0,8.39,0h9.69c4.92,0,9.84-.14,14.9,0h12.58c5.21.14,10.27,0,15.48,0h9.98c1.3,0,2.6-.29,4.05.14-.29.29-.87.14-1.16.72-.14.14-.29.14-.43.29h-.29c-.43.14-.87,0-1.3,0h-37.61c-.43.14-.87-.29-1.45,0h-.29c-.29-.14-.58,0-.87,0h-1.01c-.29-.14-.72-.14-1.16,0h-1.74c-1.16-.43-2.17-.29-3.33,0h-3.47c-.43,0-.87-.29-1.3,0h-1.3c-.43-.29-1.01-.14-1.45-.29-3.04.29-6.22.29-9.26.14-3.04-.14-6.08-.14-9.11-.14h-3.04c-.43.43-1.01.58-1.3-.14h0Z" style="fill: #010000;"/>
  <path d="m278.73,22.17c-.14.72.58.72,1.01,1.01.72.43.87.87.43,1.59-1.88-.14-3.76,0-5.5-.87-.72-.29-1.59-.29-2.46-.58-.87-.14-1.59-.14-2.46,0-.58.14-1.01.14-1.59.14-.29,0-.43,0-.72.14-.87.14-1.59.43-2.46.58-.29,0-.72,0-1.01-.14,0-.87-1.3-1.16-.87-2.17.87-.58,1.74-.72,2.75-.43.58.14,1.01-.29,1.45-.29h1.01c1.01-.14,2.03-.14,3.04,0,2.75,0,5.06.43,7.38,1.01h0Z"/>
  <path d="m146.52,69.61h-11.57c-1.45.43-2.75.58-4.19,0h-15.04c0-.14,0-.29.14-.43.58-.29,1.16-.14,1.88-.14h41.22c.58,0,1.01,0,1.59.14.14.14.29.29.14.43-2.46,0-4.92,0-7.38.14-2.31.29-4.63.29-6.8-.14h0Z" style="fill: #121011;"/>
  <path d="m115.57,69.32v.14c-1.74,0-3.62,0-5.5.14-1.3.29-2.46.29-3.76,0h-13.16c.14,0,.14-.14.29-.14.43-.43,1.01-.29,1.59-.29h19.09c.43-.14,1.01-.14,1.45.14h0Z" style="fill: #131112;"/>
  <path d="m28.64,69.61h-.72c-.58.29-1.16.43-1.74,0-2.89,0-5.93,0-8.97-.14.43-.29.87-.14,1.3-.14h18.8l.14.14h0c-.58,0-1.16,0-1.74.14-2.46.43-4.77.43-7.09,0h0Z" style="fill: #171415;"/>
  <path d="m166.63,69.61c-.29,0-.72,0-1.01.14-1.59,0-3.33,0-4.92-.14v-.14c.58-.58,1.16-.43,1.88-.43h2.89c.29,0,.87-.14,1.16.58h0Z" style="fill: #2a2828;"/>
  <path d="m283.5,28.1c-1.3-1.01-1.3-1.3,0-2.03v2.03Z"/>
  <path d="m38.33,69.61h-.43c-.14,0-.29,0-.43-.14v-.14c.14.14.72-.58.87.29h0Z" style="fill: #010000;"/>
  <path d="m215.66,49.22c.58-.29,1.01-.43,1.59,0h-1.59Z" style="fill: #6c6b6d;"/>
  <path d="m3.18,24.19c-.29,1.45-.43,2.75-.43,4.19.29.43.43.87.29,1.3-.43,1.3-.29,2.6-.29,3.91v1.74c-.14.87.14,1.88-.43,2.75-.14,1.16-.29,2.31-1.01,3.47-.29-.43-.29-.87-.29-1.3v-13.74c0-.43.14-.87-.14-1.3-.29-.72.29-1.45.14-2.17-.43-.43-.14-.87-.14-1.45.43-2.89,1.01-5.79,1.88-8.53.14-.43.29-1.01.72-1.45.29-.72.58-1.45.87-2.17,0-1.16.43-2.03,1.3-2.75.29-.43.72-1.01,1.01-1.45.72-1.01,1.45-2.03,2.75-2.46C11.43,1.48,13.45.47,15.77.47c.43.14.58-.43,1.01-.14.58.72,1.59,1.16,2.03,2.03-.29.58-.87.43-1.45.43-5.21-.14-8.53,2.89-10.56,7.23-.58,1.3-1.01,2.6-1.45,3.91-.72,2.89-1.59,5.79-2.03,8.82.14.58.14,1.01-.14,1.45h0Z"/>
  <path d="m167.79,67.59c.43,0,1.01.29,1.45-.14.29-.29.58-.29.87-.29h.43c1.01,0,1.88-.29,2.75-.43.43-.14.87-.29,1.3-.29.87-.14,1.74-.72,2.6-.29.14.87.58,1.45,1.45,1.88-2.31.72-4.63,1.16-6.94,1.45-1.45.14-2.75.43-4.19.29-.29,0-.58,0-1.01-.14-2.03-.43-3.91-.14-5.93-.14h-67.11c-.29-1.3.87-.43,1.3-.72h13.16c1.16-.14,2.31-.14,3.47,0h.72c.43-.14,1.01-.14,1.45,0h11.86c5.79,0,11.43-.14,17.21-.14h21.55c.58,0,1.16-.14,1.74-.43.29-.29.58-.43.87-.43.29-.43.72-.29,1.01-.14h0Z" style="fill: #010000;"/>
  <path d="m53.37,67.73h61.04c.14,0,.14.14.14.14h-61.33c.14,0,0,0,.14-.14h0Z" style="fill: #0e0e0e;"/>
  <path d="m166.63,67.73c-.14.29-.43.14-.72.14h-33.12c-.14-.14,0-.29.14-.43.29-.14.43-.14.72-.14h31.68c.43,0,.72,0,1.16.14-.14,0,0,.14.14.29h0Z" style="fill: #070707;"/>
  <path d="m53.37,67.73v.14h-23.29c-.14-.14,0-.29.14-.29,2.6,0,5.21-.14,7.81,0h14.03c.43.14.87.14,1.3.14Z" style="fill: #0e0e0e;"/>
  <path d="m132.64,67.73v.14h-18.08v-.14h17.79c.14-.14.29-.14.29,0Z" style="fill: #0c0d0c;"/>
  <path d="m30.09,67.73v.14h-10.56c-.43,0-.87.14-1.3-.14,2.03-.29,4.05,0,6.08-.14h5.35c.14,0,.29,0,.43.14Z" style="fill: #070807;"/>
  <path d="m111.38,68.6h-3.47c1.16-.29,2.31-.29,3.47,0Z" style="fill: #010000;"/>
  <path d="m113.55,68.6h-1.45c.43-.29,1.01-.29,1.45,0Z" style="fill: #010000;"/>
  <path d="m228.54,20.86h2.46c.58.43,1.3.29,2.03.29.58,1.01.58,1.3-.43,1.74-.29.14-.58.14-.72.29-.58.14-1.3,0-1.88-.14-.58-.14-1.16-.14-1.74,0h-.58c-.58-.14-1.3-.14-1.88.14-.72.14-1.59.14-2.31-.14-1.16-.58-2.31-.14-3.47-.29h-5.06c-1.01,0-2.17-.14-3.18.14-1.16.14-2.17-.14-3.18-.29-1.45-.43-2.75-.87-4.05-1.45-.29-.14-.58-.29-1.01-.43-.29-.14-.43-.29-.72-.43-.29-.14-.72-.29-1.01-.58-1.45-.87-2.75-2.03-4.05-3.18-1.59-1.74-3.33-3.33-5.21-4.77-.29-.14-.58-.43-.72-.58-.29-.14-.58-.43-.87-.72-.72-.43-1.3-.87-2.17-1.3-1.3-.87-2.6-1.45-4.05-2.03-2.03-.87-4.19-1.59-6.36-2.31-.43-.14-.87-.14-1.01-.58-.14-.87,0-1.45.72-2.03.43-.29.87.29,1.3.14,1.74,0,3.18.87,4.63,1.45,2.46.87,4.92,2.03,7.09,3.47.58.29,1.01.58,1.45,1.16.14.14.14.43.58.43.29-.14.43.14.43.29.29.58.87.58,1.3,1.01,1.16.87,2.03,1.88,3.04,2.89,1.16,1.16,2.31,2.31,3.76,3.33.29,0,.29.29.58.43,1.3,1.01,2.6,2.03,4.19,2.6,1.59.14,3.04.58,4.48,1.3,2.17.58,4.34.43,6.51.43.43-.14.87,0,1.3,0h.43c.58.14,1.16,0,1.74.14.43.14,1.01,0,1.45.14h5.06c-.14-.43.43-.58,1.16-.58h0Z"/>
  <path d="m75.94.33h31.39c.43,1.59.14,2.03-1.45,2.03-.58,0-1.16,0-1.88.14-9.26.14-18.51.14-27.77.14-.29,0-.58,0-.87-.14-1.88-.43-3.76-.14-5.64-.14h-4.34c-1.01-.14-2.17.14-3.18-.14-.43-1.16.43-1.16,1.01-1.16,1.74-.14,3.62-.14,5.35,0,2.03.14,4.05-.14,6.08-.14.58-.14,1.01-.29,1.3-.58Z" style="fill: #0c0c0d;"/>
  <path d="m148.26.33c2.03,0,4.05,0,6.22.14-.29,1.3-1.3,2.03-2.75,2.03h-5.21c-.58,0-1.01,0-1.59.14-1.01.14-2.03.14-3.04,0-1.3-.29-2.46-.29-3.76,0-.43.14-1.01.14-1.45.14-1.3.29-2.75-.14-4.19,0h-11.86c-.29,0-.72,0-1.01-.14-.29-.87,0-1.59.58-2.03h.29c3.91.14,7.81.14,11.57,0,.29,0,.43,0,.72-.14.43-.29.87-.29,1.3-.29,4.48,0,8.82-.14,13.31.14.29-.29.58-.14.87,0h0Z" style="fill: #050506;"/>
  <path d="m177.77,2.06c-.14.72-.58,1.3-.58,2.03-1.01.58-1.88-.14-2.75-.14-.43-.14-.87-.14-1.3-.29-1.45-.29-2.89-.43-4.19-.72-.29,0-.58,0-1.01-.14-.14,0-.14-.14-.29-.29.29-.87,1.01-1.3,1.88-1.59h1.74c1.16-.43,2.31-.29,3.18.43,1.16,0,2.31.29,3.33.72h0Z" style="fill: #000100;"/>
  <path d="m169.52.76c-.43.72-1.3,1.01-1.74,1.74-.43.43-1.01.43-1.45.29-1.16-.14-2.31-.14-3.47-.29-.43-.14-.87-.14-1.3-.14-1.3-.14-1.74-.58-1.88-2.03,3.18-.29,6.51.14,9.69.29l.14.14h0Z" style="fill: #030403;"/>
  <path d="m159.69.33c.29,1.74,1.74,1.59,3.04,1.88q-.14.14-.29.29c-.72.29-1.45.43-2.17.29-1.16-.29-2.46-.14-3.62,0h-.87c-.72-.14-1.45-.14-2.31-.14h-7.09c-.43,0-.87,0-1.16-.43,1.16-.43,2.31-.14,3.33-.14.87,0,1.74-.14,2.6,0,1.59.14,2.6-.58,3.47-1.74,1.59,0,3.33,0,5.06,0h0Z" style="fill: #010101;"/>
  <path d="m75.94.33c-.14.72-.58.87-1.16.87h-11.28c-.58,0-1.01,0-1.16.72-.14.29-.43.29-.72.29-.43,0-.72,0-1.16-.14-.29-.14-.72-.29-.72-.72s.43-.43.72-.43c.43,0,.87-.14,1.01-.72,4.92.14,9.69.14,14.46.14h0Z" style="fill: #0a0b0a;"/>
  <path d="m104.43,2.21c.58-.43,1.16-.14,1.74-.14.72,0,1.45,0,1.16-1.16,0-.14.14-.43.14-.58h7.23c.14,1.16-.29,1.74-1.59,1.74-.87,0-1.74.14-2.6.43-1.59.14-3.18,0-4.92,0-.43.14-.87.14-1.16-.29h0Z" style="fill: #0a0a0a;"/>
  <path d="m110.65,2.21c.58-.43,1.3-.58,2.03-.43,1.16.14,1.74-.29,2.03-1.45h5.64c-.43.58-.14,1.45-.72,1.88-.29.29-.58.29-1.01.43h-6.94c-.43,0-.72-.14-1.01-.43h0Z" style="fill: #090909;"/>
  <path d="m18.95,2.35c-.72-.58-1.74-.87-2.03-2.03,1.88,0,3.62,0,5.5-.14l.14.14c.29.72,1.01.58,1.59.58,1.01.14,1.3.72.72,1.45-2.03.29-3.91.58-5.93,0h0Z" style="fill: #050505;"/>
  <path d="m61.62.33c.58,1.16-.29.87-.87.87-.29,0-.58-.14-.72.29,0,.14.29.29.29.43-.43.58-1.16.29-1.74.43-1.01,0-2.03.14-3.04-.14-.72-.58-.14-.87.29-1.16.43-.14,1.01-.14,1.45-.14.72,0,.29-.43.29-.58v-.14c1.3.14,2.6.14,4.05.14h0Z" style="fill: #070707;"/>
  <path d="m132.2.33c-.14.14-.43.14-.72.14h-10.27c-.29,0-.43,0-.72-.14h11.72Z" style="fill: #111011;"/>
  <path d="m248.35,46.61c0,.72.29,1.01,1.01,1.01.58,0,1.01,0,.87.72,0,.14-.14.14-.29.29h-5.35c-.14,0-.29,0-.43-.14-1.3-.43-1.3-.58-.43-1.59.14-.14.29-.29.58-.43,1.45-.29,2.75-.58,4.05.14h0Z" style="fill: #040404;"/>
  <path d="m267.88,48.93c1.3-.29,2.46-.29,3.76,0h-3.76Z" style="fill: #363335;"/>
  <path d="m272.08,48.93c.72-.29,1.3-.29,2.03,0h-2.03Z" style="fill: #6d6d6e;"/>
  <path d="m243.87,21.44h1.74c.58-.14,1.01-.14,1.59,0h3.76c.43.14.87,0,1.3.14,3.18,0,6.36-.14,9.69.29.43.58,0,.72-.29,1.16-.58.43-1.16.43-1.74.72-.43.14-.87.14-1.3,0-.58-.14-1.3-.14-2.03-.14h-2.89c-.58,0-1.16,0-1.74.14-2.75,0-5.35-.14-7.96-.29-.58-.14-1.16-.29-1.74,0-.87.14-1.59,0-2.46-.14-.87,0-1.74,0-2.46-.14-.87-.29-1.59-.29-2.31,0-.29,0-.72.14-1.01.14-.58,0-1.16.14-1.59-.43,0-.14.14-.43.29-.43,1.16,0,1.3-.58.87-1.45,1.3,0,2.6,0,3.91-.14.29,0,.58,0,.72.14.72,0,1.3-.14,2.03-.14s1.3.29,1.88.14c.29.43,1.01.14,1.74.43h0Z"/>
  <path d="m220,20.72q.14,0,.29-.14c.43,0,.87,0,1.3.14.14,0,.14.14.14.14h-1.59q-.14,0-.14-.14h0Z" style="fill: #302f2f;"/>
  <path d="m221.59,21.01v-.14h1.3v.14h-1.3Z" style="fill: #414041;"/>
  <path d="m243.44,46.76h1.01c-.14.43-.58.72-1.01,1.01.43.29,1.16.29,1.45.72-.43,0-1.01,0-1.45.14-1.01,0-2.03,0-3.04-.14-.14-.43-.58-.43-.87-.72.29-.58.87-.58,1.3-.58s1.01.14,1.3-.43c.43-.29.87-.14,1.3,0h0Z" style="fill: #000100;"/>
  <path d="m219.28,47.05h2.75c-.87.29-1.74.29-2.75,0Z" style="fill: #090909;"/>
  <path d="m227.24,47.05c.43-.43,1.01-.14,1.59-.29.29.14.58-.14.72.29h-2.31Z" style="fill: #535252;"/>
  <path d="m231.29,46.76c.72,0,1.3,0,2.03-.14q.14,0,.29.14c-.87.43-1.59.43-2.31,0Z" style="fill: #121211;"/>
  <path d="m281.33,26.07c-.29,0-.29-.29-.29-.43,0-.29,0-.72.29-.87.14-.14.29-.58.72-.43.29,0,.29.43.29.58.14.29.14.58-.29.72-.43,0-.72.14-.72.43h0Z"/>
  <path d="m282.06,38.95v-2.75c.29.87.29,1.74,0,2.75Z" style="fill: #32302f;"/>
  <path d="m261.95,46.03c.29,0,.72,0,1.01-.14.43-.14.87-.14,1.3,0,.14,0,.43,0,.58.29-1.01,0-2.02.29-2.89-.14Z" style="fill: #100f0e;"/>
  <path d="m47.44,69.61h-2.75c.72-.58,2.03-.58,2.75,0Z" style="fill: #010000;"/>
  <path d="m53.08,69.61c-.14,0-.29,0-.43-.14.29-.72.43-.29.72,0,0,.14-.14.14-.29.14Z" style="fill: #010000;"/>
  <path d="m52.36,69.61h-.72c.29-.72.58-.29.72,0Z" style="fill: #010000;"/>
  <path d="m50.48,69.61h-.72c.14-.72.43-.29.72,0Z" style="fill: #010000;"/>
  <path d="m40.5,69.61h-.72c.29-.72.43-.29.72,0Z" style="fill: #010000;"/>
  <path d="m264.12,23.9h-3.62c-.29,0-.58-.14-.87-.29,0-.29.29-.29.58-.43.72-.14,1.3-.29,1.45-1.3h0c.58-.14,1.01-.14,1.59,0h.29c-.29.87,1.01,1.16.58,2.03h0Z" style="fill: #060606;"/>
  <path d="m17.5,53.12v-1.01c.43-.14.72-.43,1.16-.58.29.14.29.29.29.58,0,1.01.43,2.03.29,3.04-.43.29-.43,1.01-1.01,1.45-.29,0-.14-.43-.29-.58,0-.87-.14-1.88-.43-2.89h0Z" style="fill: #0d0d0d;"/>
  <path d="m18.23,56.59c.43-.29-.14-1.3.87-1.16.43.29.29.87.58,1.16.14.43.14.72.14,1.16v.43c-.14.58-.43,1.01-1.3.58,0-.29,0-.72-.14-1.01-.29-.29-.43-.72-.14-1.16h0Z"/>
  <path d="m18.51,58.76c.58,0,.87-.14,1.01-.72.72.29.58,1.01.87,1.45,0,.58,0,1.01-.43,1.45-.43.14-.72,0-1.01-.29-.14-.14-.29-.29-.29-.43,0-.43-.14-.87-.14-1.45Z" style="fill: #090a0a;"/>
  <path d="m19.96,60.93c0-.43.14-.87.29-1.45q.14-.14.29,0c.29.43.87.72.58,1.3-.29.14-.58,0-.87.14h0q-.14.14-.29,0h0Z" style="fill: #121314;"/>
  <path d="m221.02,22.75h-1.3c-.14,0-.14-.14-.14-.14h2.6c.43,0,.87-.14,1.01.43h-.29c-.43-.43-1.16-.14-1.88-.29h0Z" style="fill: #0d0c0d;"/>
  <path d="m214.65,22.6h-3.18c1.01-.43,2.17-.14,3.18-.14,0,0,.14.14,0,.14h0Z" style="fill: #474748;"/>
  <path d="m219.86,22.46v.14h-3.18q-.14,0-.14-.14c0-.14,0,0,.14,0h3.18Z" style="fill: #1e1f20;"/>
  <path d="m216.68,22.46v.14l-.58.14-1.45-.14v-.14h2.03Z" style="fill: #343434;"/>
  <path d="m229.7,22.89h-1.74c.58-.43,1.16-.29,1.74,0Z" style="fill: #4b4847;"/>
  <path d="m31.53,2.21h-1.01c-.58-.29-.87-.72-1.3-1.01-.29-.29-.43-.58,0-.87.14,0,.29,0,.43-.14,2.6-.14,5.21,0,7.96-.14h13.31c.72,0,1.45-.14,2.17.14,0,0,.14,0,.29.14,1.01.29.72.87.14,1.16s-1.16.58-1.88.72h-17.79c-.58,0-1.45-.14-2.31,0h0Z" style="fill: #010100;"/>
  <path d="m29.36.33c-.29.43,0,.72.29.87.43.29.72.58.87,1.01-.43,0-.87,0-1.3.14s-1.01.14-1.45,0c-.87,0-1.74,0-2.75-.14-.14-1.01-1.01-.87-1.74-1.01-.58,0-1.45.14-1.01-.87.58,0,1.01,0,1.45-.14h1.74c.58-.14,1.01,0,1.59-.14.72,0,1.3-.14,2.03.14.14.14.29.14.29.14h0Z" style="fill: #030303;"/>
  <path d="m52.22,1.92c.29-.43.72-.72,1.3-.72.72-.14.72-.43.14-.87,0,0,.14,0,.29-.14.58-.14,1.16-.14,1.74,0l2.03.14c.14.29,1.01,0,.87.58-.14.58-.72.29-1.16.29-.72.14-1.59-.29-2.03.72-.29.29-.58.14-.72.14h-1.88c-.29,0-.43.14-.58-.14h0Z" style="fill: #030403;"/>
  <path d="m141.75,2.21c-1.01,0-2.17,0-3.18.14-.14.14-.29.14-.43-.14,1.16-.29,2.46-.29,3.62,0Z" style="fill: #010101;"/>
  <path d="m243.87,21.44h-2.31q-.14,0-.14-.14c0-.14,0,0,.14,0,.87,0,1.59-.29,2.31.14Z" style="fill: #363635;"/>
  <path d="m237.94,21.15c.58,0,1.16,0,1.74.14.14,0,.14.14.14.14h-.14c-.72-.14-1.3.14-2.03-.14q.14-.14.29-.14h0Z"/>
  <path d="m239.68,21.44v-.14h1.3c.29,0,.43,0,.72.14v.14c-.72-.14-1.45-.14-2.03-.14h0Z" style="fill: #1c1b1a;"/>
  <path d="m252.11,21.73c-.43,0-.87.14-1.3-.14.43-.14.87-.29,1.3.14Z" style="fill: #212120;"/>
  <path d="m17.07,21.44c0-1.16.14-2.31.29-3.47-.14-1.3,0-2.6.72-3.76-.14-.58.43-1.16.29-1.74-.14-.43-.14-.72.29-1.01,0-.58,0-1.16.29-1.74.58,0,1.3-.58,1.45.43-.72,3.47-1.3,6.94-1.74,10.56,0,.58-.14,1.16-.43,1.59-1.01.58-1.01-.29-1.16-.87h0Z" style="fill: #050506;"/>
  <path d="m16.34,28.1c.58-.58,0-1.16.29-1.74.58-.58,1.01-.43,1.45.14.43,1.88-.14,3.62-.14,5.5-.29.87-.14,1.74-.14,2.6,0,.58-.14,1.16-1.01,1.01-.29-.14-.29-.43-.29-.72,0-.72,0-1.45-.14-2.17,0-1.3-.14-2.46,0-3.76-.14-.43-.14-.58,0-.87h0Z" style="fill: #121111;"/>
  <path d="m17.65,26.36c-.43-.14-.72-.14-1.16,0,0-.72,0-1.3-.14-2.03,0-.58.43-.87.29-1.45-.14-.58-.14-1.01.29-1.45h.14c.29.43.58.87.87,1.16.72,1.3.72,2.6-.29,3.76Z" style="fill: #171718;"/>
  <path d="m18.51,51.67c.14.87-.43.58-1.01.58-.29-.72-.43-1.45-.29-2.17.14-.58-.29-1.59,1.01-1.45.29.72.43,1.59.43,2.31.14.29,0,.58-.14.72h0Z" style="fill: #050404;"/>
  <path d="m20.25,10.16c-.43-.29-1.01.29-1.45-.14v-.72c.43-.43,1.01-.14,1.45-.43.58.29,1.59.29.72,1.3,0,.14-.14.14-.29.14s-.43,0-.43-.14h0Z" style="fill: #101011;"/>
  <path d="m18.23,48.49c-.72.29-.58,1.01-.87,1.45-.14-.29-.14-.43-.29-.72,0-.43,0-.87.14-1.16.29-.58,0-1.45,1.16-1.45,0,.58.43,1.3-.14,1.88h0Z" style="fill: #0c0c0d;"/>
  <path d="m53.66,60.79v.14H20.25c.14-.29.43-.14.72-.29.43-.29.87-.43,1.45-.43h29.94c.43.14.87.14,1.3.58h0Z" style="fill: #5f5f5f;"/>
  <path d="m92.28,37.64v5.35c-.14.43-.29,1.16-1.01.72-.29-.43-.29-.87-.43-1.45-.14-1.59-.29-3.18,0-4.77.43-.14.87-.29,1.45.14Z" style="fill: #101111;"/>
  <path d="m91.27,43.86c.58,0,.58-.43.87-.72.29,1.88.43,3.76.58,5.64.14,1.16,0,1.16-1.01.87-.29-.29-.29-.58-.43-1.01,0-1.45-.43-2.75-.29-4.19,0-.29.14-.43.29-.58Z" style="fill: #010101;"/>
  <path d="m92.72,60.93h-.29c-.43-.43-.29-.87-.14-1.3.43-.43.58-1.01.43-1.74-.14-.58-.43-1.16-.14-1.74.58,0,.58-.72,1.16-.87.43,1.01.43,2.17.58,3.18.29,1.01-.29,1.59-.87,2.17-.29.29-.58.14-.72.29h0Z" style="fill: #0d0c0c;"/>
  <path d="m92.28,32.44v3.18c-.43.29-.58,1.01-1.3,1.01q-.14-.14-.14-.29c-.14-.87,0-1.74-.14-2.75-.14-.43-.14-.72,0-1.16.43-.29,1.01-.14,1.59,0h0Z" style="fill: #1c1d1e;"/>
  <path d="m93.73,55.43c-.29.29-.14,1.16-.87.72-.29-.14-.43-.43-.43-.72-.14-.58,0-1.16-.29-1.74,0-.29-.14-.58,0-.87.43-.43.43-1.01,1.16-1.3.14,1.3.58,2.46.43,3.91h0Z" style="fill: #010101;"/>
  <path d="m92.28,27.08c0,.87,0,1.59.14,2.46l-.14,1.01c-.58.29-.87,0-1.01-.43s-.14-.87-.43-1.3c-.29-.87-.29-1.59.14-2.31.87-.43,1.01.14,1.3.58h0Z" style="fill: #0e0f10;"/>
  <path d="m91.13,28.82c.58.14.43.58.43,1.01s.14.72.72.72v2.03c-.43.14-1.01.14-1.45,0-.72-1.3-.29-2.6.29-3.76Z" style="fill: #161717;"/>
  <path d="m93.3,51.38c-.29.43-.29,1.16-.87,1.16-.72-.43-.43-1.3-.72-1.88,0-.14,0-.29-.14-.43,0-.29,0-.72.29-.87.72.29,1.01,0,1.01-.72.43,1.01.14,1.88.43,2.75Z" style="fill: #0d0d0d;"/>
  <path d="m91.13,36.63c.29-.43.58-1.01,1.16-1.01v2.03h-1.45c-.43-.43-.29-.72.29-1.01Z" style="fill: #1c1c1d;"/>
  <path d="m93.3,60.79c0-.14,0-.43.14-.58.43-.29,1.01-.58.43-1.3-.14-.14.29-.29.43-.29.14.72.72,1.45.29,2.31-.43,0-.87.14-1.3-.14h0Z" style="fill: #010102;"/>
  <path d="m92.28,60.93c-.14-.29-.43-.14-.72-.29-.14-.29,0-.58.14-.87q.14-.14.29-.29c.14-.14.43-.14.58,0v1.45h-.29Z" style="fill: #1b1c1b;"/>
  <path d="m20.39,59.63h.29c.43.14.87,0,1.3,0h33.41c.29-.14.72.43,1.01,0h1.16c.29,0,.43.43.72.58-.14-.29-.29-.43.14-.58h2.31q.43.29.72,0h2.03c.29,0,.72.43,1.01,0h.29s.14,0,.29.14l.43.43v-.43c.14,0,.14-.14.29,0,.14,0,.29.14.29.14.14.14.29.29.29.43v-.58c.14,0,.14-.14.29,0,.14,0,.29.14.29.14.14.14.29.29.29.43v-.58c.14,0,.14-.14.29,0,.29.29.72-.14,1.01,0h4.48c.43-.14.72.29,1.16,0h.29s.14,0,.29.14l.43.43v-.43c.14,0,.14-.14.29,0,.14,0,.14.14.29.14.14.14.14.29.29.43-.14-.14,0-.29,0-.58h.29c.29.29.43-.14.72,0h1.88c.29,0,.58.43,1.01,0h.29c.29.29.43.14.72,0h1.16c.29,0,.58.58.87,0h.29c1.74.58,3.62.43,5.35.29.87-.14,1.74.43,2.46-.29h.29c0,.29,0,.72-.29,1.01H20.54c.72-.72-.29-.72-.14-1.3h0Z" style="fill: #1b1c1b;"/>
  <path d="m21.41,8.57h.29c.43-.14.87,0,1.3,0,.43.72.14,1.16-.58,1.45-.58,0-1.16.14-1.74-.14.87-.87-.58-.72-.58-1.16.58,0,.87-.14,1.3-.14h0Z" style="fill: #1a1918;"/>
  <path d="m94.6,8.86l.29.29c-.29,2.03-.72,3.91-1.01,5.93-.43.14-.72.29-1.16,0-.29-.87.29-1.74.29-2.75,0-.58,0-1.3.43-1.74q0-.14.14-.29c0-.58-.29-1.16.43-1.59,0,.14.29,0,.58.14Z" style="fill: #0e0d0e;"/>
  <path d="m91.27,26.36c-.29-1.3.43-2.46.14-3.62-.14-.29-.14-.58,0-.87l.29-.29c.29-.29.29-.87.72-.72s0,.72.29,1.01c-.14,1.74-.29,3.62-.43,5.35-.43-.29-.72-.58-1.01-.87h0Z" style="fill: #010000;"/>
  <path d="m92.72,21.73c-.29-.14-.14-.58-.29-.72-.43.14-.29.72-.87.72q-.14,0-.14-.14v-.14c0-.14,0-.29.14-.43,0-.14,0-.29.14-.58.14-.43-.14-1.01.29-1.45.29-.14.58-.29,1.01,0,.14.87,0,1.74-.29,2.75h0Z" style="fill: #060506;"/>
  <path d="m92.57,15.08c.43.14.72-.29,1.16,0-.14.87-.29,1.74-.43,2.75-.43,0-.72-.43-1.01-.72-.14-.14,0-.29,0-.43.14-.58-.14-1.16.29-1.59h0Z" style="fill: #030203;"/>
  <path d="m92.28,16.96c.58-.14.72.43.87.72.14.43.14.87-.29,1.3h-1.01v-1.01c0-.29,0-.72.43-1.01h0Z" style="fill: #0c0d0d;"/>
  <path d="m17.5,32v.43c.14,1.16,0,2.17.14,3.33v1.3c0,.43.14,1.01,0,1.59-.43.29-.87.29-1.3,0,0-.29,0-.72-.14-1.01v-.43c.14-.58-.14-1.3.29-1.88.72,0,.72-.43.72-1.01.14-.58-.14-1.45.29-2.31h0Z" style="fill: #151414;"/>
  <path d="m17.65,44.3c.58.72.29,1.45.29,2.17-.29.43-.58,1.01-.87,1.45-.43-1.3-.29-2.6-.58-3.91.43-.14.72.43,1.16.29h0Z" style="fill: #131414;"/>
  <path d="m17.5,41.12v.29q.14,1.59-1.01,1.3c0-.29,0-.72-.14-1.01,0-.14-.14-.29-.14-.43.14-.58,0-1.01.29-1.59.29-.58.58-.87,1.01-.14.29.58.43,1.01,0,1.59Z" style="fill: #020102;"/>
  <path d="m16.49,42.56c1.3.29.72-.72,1.01-1.3.58,1.01.14,2.03.14,3.04-.43.29-.72-.14-1.16-.29,0,0,0-1.45,0-1.45Z" style="fill: #0e0d0e;"/>
  <path d="m17.5,39.38c-.72-.29-.72.29-.72.72-.14.43.14.87-.14,1.3-.72-.72-.29-1.59-.29-2.46q0-.14.14-.29h1.16c.14.14.29.29.29.43q-.14.29-.43.29h0Z" style="fill: #0c0b0b;"/>
  <path d="m16.34,37.35v-2.75c0-.14.14-.14.14,0v.72c-.14.72.29,1.45-.14,2.03h0Z" style="fill: #312f2e;"/>
  <path d="m16.49,34.75h-.14c0-.43,0-.87-.14-1.16,0-.29,0-.43.14-.72.29.58,0,1.16.14,1.88h0Z" style="fill: #2e2c2b;"/>
  <path d="m86.35,10.16h-32.98c-.58-.43-1.16-.29-1.74-.29h-17.36c-.58,0-1.3.29-1.59-.72.58-.43,1.3-.29,1.88-.29h49.9c.58,0,1.3,0,1.88.14.58.29.58.72,0,1.16h0Z" style="fill: #302f2f;"/>
  <path d="m32.54,9.15c.43.43.87.29,1.45.29h17.79c.58,0,1.3-.14,1.59.72h-28.06c-.29-.72.29-.87.72-1.01.43-.29.87-.29,1.45-.43h3.91c.43,0,.87.14,1.16.43h0Z" style="fill: #30302f;"/>
  <path d="m86.35,10.16c0-.29.58-.72-.29-.87-.43-.14-.87-.14-1.3-.14h-21.26c-.14-.29-.14-.43.14-.58h23.29c1.16.43,1.16.58.58,1.59h-1.16Z" style="fill: #2e2b2a;"/>
  <path d="m83.75,59.63h4.05c0,.14,0,.29-.14.29-1.3.14-2.75.29-4.05-.14h-.29c-.29.14-.43.14-.72,0h-1.45c-.14.14-.29.14-.43,0h-.29c-.29.14-.43.14-.72,0h-2.46c-.14.14-.29.14-.43,0h-.29c-.29.14-.43.14-.72,0h-.29c-.29.14-.43.14-.72,0h-.29c-.29.14-.43.14-.72,0h-5.5c-.14.14-.29.14-.43,0h-.29c-.29.14-.43.14-.72,0h-.29c-.29.14-.43.14-.72,0h-.29c-.29.14-.43.14-.72,0h-.29c-.29.14-.43.14-.72,0h-2.46c-.14.14-.29.14-.43,0h-2.46c-.14.14-.29.14-.43,0h-1.45c-.14.14-.29.14-.43,0h-2.31c-.14,0-.14-.14-.14-.14h.14" style="fill: #3c3b3a;"/>
  <path d="m53.66,59.63v.14h-31.97c-.29,0-.72,0-.87-.14h24.44c2.75-.14,5.5,0,8.39,0Z" style="fill: #3c3b3b;"/>
  <path d="m93.73,8.86c-.14.43-.29,1.01-.43,1.45l-.29-.29c-.87-.29-1.74,0-2.6-.14-.58-.29-1.01-.58-.58-1.3.29,0,.72,0,1.01-.14h1.74c.29.43.87.14,1.16.43h0Z" style="fill: #1c1a19;"/>
  <path d="m89.82,8.71c-.14.43.29.72.43,1.16,0,.14-.14.14-.29.29h-2.46c.29-.58.14-1.01-.29-1.45.43-.29,1.01-.14,1.45,0h1.16Z" style="fill: #272524;"/>
  <path d="m23,10.16l-.29-.29c.29-.29.29-.72.43-1.16.43-.29.87-.14,1.3-.14h.58c.43.72-.14,1.16-.72,1.45-.43,0-.87,0-1.3.14h0Z" style="fill: #23211f;"/>
  <path d="m24.44,10.16c.29-.43.43-.87.72-1.45.72-.29,1.45-.29,2.17,0-.43.72-1.74.29-2.03,1.45h-.87Z" style="fill: #2e2c2a;"/>
  <path d="m87.8,59.77v-.14c1.3,0,2.6-.29,4.05.14h-.29c-1.3.14-2.46.43-3.76,0h0Z" style="fill: #454443;"/>
  <path d="m87.8,59.77h3.76c-.29.29-.29.58-1.01.43-1.74-.14-3.47.29-5.21,0-.58,0-1.45.29-1.74-.58,1.45.14,2.75.14,4.19.14h0Z" style="fill: #1b1c1b;"/>
  <path d="m82.59,59.77h.72c0,.14,0,.43-.14.58-.29,0-.43-.29-.58-.58Z" style="fill: #1b1c1b;"/>
  <path d="m79.7,59.77h.72c0,.14,0,.43-.14.58-.29,0-.43-.29-.58-.58Z" style="fill: #1b1c1b;"/>
  <path d="m75.65,59.77h.72c0,.14,0,.43-.14.58-.29,0-.43-.29-.58-.58Z" style="fill: #1b1c1b;"/>
  <path d="m74.64,59.77h.72c0,.14,0,.43-.14.58-.29,0-.43-.29-.58-.58Z" style="fill: #1b1c1b;"/>
  <path d="m73.77,59.77h.72c0,.14,0,.43-.14.58-.43,0-.43-.29-.58-.58Z" style="fill: #1b1c1b;"/>
  <path d="m66.83,59.77h.72c0,.14,0,.43-.14.58-.43,0-.43-.29-.58-.58Z" style="fill: #1b1c1b;"/>
  <path d="m65.81,59.77h.72c0,.14,0,.43-.14.58-.29,0-.43-.29-.58-.58Z" style="fill: #1b1c1b;"/>
  <path d="m64.8,59.77h.72c0,.14,0,.43-.14.58-.29,0-.43-.29-.58-.58Z" style="fill: #1b1c1b;"/>
  <path d="m63.79,59.77h.72c0,.14,0,.43-.14.58-.29,0-.43-.29-.58-.58Z" style="fill: #1b1c1b;"/>
  <path d="m55.83,59.77h.43c0,.14.14.29.14.58-.29,0-.43-.29-.58-.58h0Z" style="fill: #1b1c1b;"/>
  <path d="m57.86,59.77h.43c0,.14.14.29.14.58-.29,0-.43-.29-.58-.58h0Z" style="fill: #1b1c1b;"/>
  <path d="m60.9,59.77h.43c0,.14.14.29.14.58-.43,0-.43-.29-.58-.58h0Z" style="fill: #1b1c1b;"/>
  <path d="m67.84,59.77h.43c0,.14.14.29.14.58-.43,0-.43-.29-.58-.58h0Z" style="fill: #1b1c1b;"/>
  <path d="m76.66,59.77h.43c0,.14.14.29.14.58-.29,0-.43-.29-.58-.58h0Z" style="fill: #1b1c1b;"/>
  <path d="m80.57,59.77h.43c0,.14.14.29.14.58-.29,0-.29-.29-.58-.58h0Z" style="fill: #1b1c1b;"/>
  <path d="m93.73,8.86c-.43,0-.87.14-1.3-.14.43,0,.87,0,1.16-.14.29.14.58-.14.72.29h-.58Z" style="fill: #2c2c2c;"/>
  <path d="m31.68,8.71h31.82v.43h-30.95c-.29,0-.87.14-.87-.43h0Z" style="fill: #2e2c2a;"/>
</svg>