<?xml version="1.0" encoding="utf-8"?>
<!-- Generator: Adobe Illustrator 27.4.1, SVG Export Plug-In . SVG Version: 6.00 Build 0)  -->
<svg version="1.1" id="Layer_1" xmlns="http://www.w3.org/2000/svg" xmlns:xlink="http://www.w3.org/1999/xlink" x="0px" y="0px"
	 viewBox="0 0 214.4 71.5" style="enable-background:new 0 0 214.4 71.5;" xml:space="preserve">
<style type="text/css">
	.st0{fill:#010000;}
	.st1{fill:#121011;}
	.st2{fill:#131112;}
	.st3{fill:#171415;}
	.st4{fill:#2A2828;}
	.st5{fill:#6C6B6D;}
	.st6{fill:#0E0E0E;}
	.st7{fill:#070707;}
	.st8{fill:#0C0D0C;}
	.st9{fill:#070807;}
	.st10{fill:#0C0C0D;}
	.st11{fill:#050506;}
	.st12{fill:#000100;}
	.st13{fill:#030403;}
	.st14{fill:#010101;}
	.st15{fill:#0A0B0A;}
	.st16{fill:#0A0A0A;}
	.st17{fill:#090909;}
	.st18{fill:#050505;}
	.st19{fill:#111011;}
	.st20{fill:#040404;}
	.st21{fill:#363335;}
	.st22{fill:#6D6D6E;}
	.st23{fill:#302F2F;}
	.st24{fill:#414041;}
	.st25{fill:#535252;}
	.st26{fill:#121211;}
	.st27{fill:#32302F;}
	.st28{fill:#100F0E;}
	.st29{fill:#060606;}
	.st30{fill:#0D0D0D;}
	.st31{fill:#090A0A;}
	.st32{fill:#121314;}
	.st33{fill:#0D0C0D;}
	.st34{fill:#474748;}
	.st35{fill:#1E1F20;}
	.st36{fill:#343434;}
	.st37{fill:#4B4847;}
	.st38{fill:#010100;}
	.st39{fill:#030303;}
	.st40{fill:#363635;}
	.st41{fill:#1C1B1A;}
	.st42{fill:#212120;}
	.st43{fill:#121111;}
	.st44{fill:#171718;}
	.st45{fill:#050404;}
	.st46{fill:#101011;}
	.st47{fill:#5F5F5F;}
	.st48{fill:#101111;}
	.st49{fill:#0D0C0C;}
	.st50{fill:#1C1D1E;}
	.st51{fill:#0E0F10;}
	.st52{fill:#161717;}
	.st53{fill:#1C1C1D;}
	.st54{fill:#010102;}
	.st55{fill:#1B1C1B;}
	.st56{fill:#1A1918;}
	.st57{fill:#0E0D0E;}
	.st58{fill:#060506;}
	.st59{fill:#030203;}
	.st60{fill:#0C0D0D;}
	.st61{fill:#151414;}
	.st62{fill:#131414;}
	.st63{fill:#020102;}
	.st64{fill:#0C0B0B;}
	.st65{fill:#312F2E;}
	.st66{fill:#2E2C2B;}
	.st67{fill:#30302F;}
	.st68{fill:#2E2B2A;}
	.st69{fill:#3C3B3A;}
	.st70{fill:#3C3B3B;}
	.st71{fill:#1C1A19;}
	.st72{fill:#272524;}
	.st73{fill:#23211F;}
	.st74{fill:#2E2C2A;}
	.st75{fill:#454443;}
	.st76{fill:#2C2C2C;}
</style>
<path class="st0" d="M7,45.6c0-0.1,0-0.2,0-0.3c-0.6-0.5-0.4-1.2-0.5-1.9c-0.1-0.5-0.1-0.9-0.2-1.4c-0.1-0.4-0.1-0.8,0-1.2
	c-0.3-2.7-0.1-5.3-0.2-8c0.2-0.9,0.1-1.8,0.2-2.7c0.1-0.2,0.2-0.5,0.4-0.6c0.5,0.3,0.4,0.8,0.4,1.2c0,3.1,0,6.1,0,9.3
	c0.3-0.5,0.1-1.1,0.6-1.4c0.4,0.1,0.4,0.5,0.4,0.8c0.1,2.1,0.3,4.2,0.7,6.3c0,0.1,0,0.2,0,0.3C9,46.9,9.3,48,9.5,49
	c0.1,0.4,0.2,0.8,0.3,1.2c0.3,1.2,0.8,2.5,1.3,3.6c0.1,0.2,0.1,0.3,0.2,0.4c0.7,1.3,1.6,2.5,3,3.2c1.1,0.6,2.3,1,3.7,1.1
	c0.2,0,0.4,0,0.6,0c0.1,0,0.2,0,0.3,0.1c2.7,0.1,5.4,0,8.1,0c5.3,0,10.7,0,16,0c14.1,0,28.2,0,42.3,0c4.2,0,8.3,0,12.5,0
	c7.1,0,14.3,0,21.4,0c0.4,0,0.8,0,1.3,0.1c0.5,0.2,0.2,0.4,0,0.6c-0.4,0.2-0.9,0.2-1.4,0.2c-5.1,0.1-10.2,0-15.4,0.1
	c-5.9,0-11.8,0.2-17.7,0.1c-0.4,0-0.9,0-1.3-0.1c-0.4-0.1-0.8-0.1-1.2,0c-0.2,0-0.4,0-0.6,0c-0.8-0.1-1.6-0.1-2.5,0.1
	c-2.9,0.1-5.8,0.1-8.7,0c-0.6-0.2-1.1-0.2-1.7-0.2c-5.8,0.1-11.6,0.1-17.3,0.1c-4.9,0-9.8,0-14.8-0.1c-2.9,0-5.8,0.1-8.6,0
	c-3.4-0.1-6.7-0.1-10.1-0.1c-1.2,0-2.3,0.4-3.5,0.4c-0.3,0.1-0.5,0-0.8-0.1c-0.3,0-0.6-0.2-0.9-0.3c-2.2-0.9-3.8-2.6-4.7-4.8
	C8.2,52,7.2,49,7,45.9C7,45.8,7,45.7,7,45.6L7,45.6z"/>
<path d="M153.8,46.1c-1.8,0.2-3.6,0.5-5.3,1.2c-0.2,0.3-0.5,0.4-0.9,0.3c-0.5,0.1-0.8,0.5-1.2,0.7c-0.6,0.7-1.3,1.1-2.1,1.5
	c-1.2,1.2-2.4,2.3-3.5,3.4c-0.2,0.2-0.5,0.4-0.7,0.6c-0.2,0.4-0.4,0.6-0.9,0.7c-0.8,0.5-1.6,0.9-2.4,1.4c-0.9,0.9-2.1,1.3-3.3,1.7
	c-0.7,0.1-1.2,0.5-1.9,0.7c-0.1,0.1-0.3,0.2-0.5,0.2c-0.5,0.2-1,0.3-1.6,0.5c-1-0.3-1.1-0.4-1.1-1.4c0.1-0.2,0.4-0.3,0.6-0.3
	c2.9-0.8,5.6-2.1,8.2-3.7c0.4-0.2,0.7-0.4,1-0.7c0.6-0.4,1.2-0.9,1.8-1.3c0.2-0.2,0.4-0.3,0.6-0.5c0.2-0.2,0.4-0.3,0.5-0.5
	c0.1-0.1,0.1-0.2,0.2-0.2c0.6-0.6,1.2-1.2,1.8-1.8c0.1-0.1,0.2-0.2,0.2-0.2c1.3-1.2,2.8-2,4.5-2.7c0.3-0.1,0.6-0.2,0.9-0.3
	c0.7-0.2,1.4-0.3,2.1-0.4c0.3-0.1,0.6-0.1,1-0.2c1.2-0.3,2.4-0.2,3.5-0.2c0.7,0,1.4-0.1,2.1-0.1c0.7,0.1,1.4,0.2,2.1,0
	c1.1-0.1,2.3,0,3.4-0.1c0.5,0,1,0,1.5,0c0.4,0,0.8-0.1,1.3-0.1c0.5,0.1,1.1,0.2,1.6,0c0.3-0.1,0.7,0,1-0.1c0.2,0,0.4,0,0.6,0
	c0.3,0,0.7,0,1,0c1,0,2,0,3,0c0.1,0,0.2,0,0.3,0.1c0.3,0.8-0.3,0.6-0.7,0.7c-0.5,0-0.6,0.2-0.4,0.6c0,0.2-0.1,0.2-0.2,0.2
	c-0.2,0-0.3,0-0.5,0c-0.8-0.1-1.5-0.1-2.2,0c-0.9,0-1.8,0-2.7,0c-0.3,0.1-0.6,0.1-0.9,0c-2.2,0.3-4.4,0-6.6,0.2
	c-1,0.1-1.9,0.1-2.9,0.1c-0.4-0.1-0.7-0.1-1.1,0L153.8,46.1L153.8,46.1z"/>
<path d="M191.3,45.9c-0.9,0-1.7-0.5-2.5-0.5c-0.4-0.2-0.8,0-1.2-0.1c-0.7,0.2-1.5,0.1-2.2,0.2c-0.4,0.1-0.9,0-1.3,0.1
	c-0.3,0-0.6,0-0.9,0c-0.5,0-1.1-0.1-1.6,0.1h-1.2c-0.4-0.2-0.8,0-1.2-0.1c-0.3-0.2-0.6-0.3-0.9-0.4c-0.4-0.1-0.7-0.4-0.5-0.9
	c0.2-0.2,0.4-0.2,0.7-0.2c0.2,0,0.4,0,0.6,0c0.4,0,0.8,0,1.2,0c0.4,0,0.9,0,1.3,0c0.4,0,0.8-0.1,1.3-0.1c0.6,0.1,1.1,0.1,1.6,0
	c0.9-0.1,1.9,0,2.8-0.1c0.6,0.1,1.3,0.1,1.9,0.1c0.9-0.1,1.7,0.5,2.6,0.5c0.9,0,1.8,0,2.7,0c0.7,0,1.3-0.1,1.9-0.4
	c0.7-0.4,1.6-0.3,2.3-0.4c1-0.1,1.5-0.6,1.8-1.5c0.3-1,0.3-2.1,0.6-3.1c0.2-0.7,0.1-1.3,0-1.9c-0.4-2.2-0.2-4.4-0.5-6.6
	c-0.1-0.5,0.5-0.7,0.6-1.1c-0.4,0-0.4,0.4-0.6,0.5c-0.4,0-0.5-0.3-0.6-0.5c0-0.5-0.1-0.9-0.6-1.1c-0.3-0.1-0.6-0.3-0.4-0.8
	c1.7,0.2,2.9,0.9,3.2,2.7c-0.5,0.5-0.3,0.9,0,1.4c0.4,0.6,0.1,1.3,0.2,2c0,0.5,0,1,0,1.4c-0.2,1,0.2,1.9,0.2,2.9
	c0.1,0.5,0.1,1,0,1.5c-0.1,1.4-0.3,2.7-0.8,4c-0.5,1.4-1.7,1.9-3.1,1.9c-0.8,0-1.5,0-2.2,0.6c-0.2,0.2-0.5,0.1-0.8,0.1
	c-0.5-0.1-0.9-0.1-1.4,0c-0.1,0-0.2,0-0.3,0C193,45.8,192.2,45.8,191.3,45.9L191.3,45.9z"/>
<path class="st0" d="M15.8,59.8c1.3-0.1,2.6-0.5,4-0.5c1.9,0.1,3.9,0,5.8,0c2.2,0,4.5,0,6.7,0c3.4,0,6.8-0.1,10.3,0
	c2.9,0,5.8,0,8.7,0c3.6,0.1,7.1,0,10.7,0c2.3,0,4.6,0,6.9,0c0.9,0,1.8-0.2,2.8,0.1c-0.2,0.2-0.6,0.1-0.8,0.5
	c-0.1,0.1-0.2,0.1-0.3,0.2c-0.1,0-0.1,0-0.2,0c-0.3,0.1-0.6,0-0.9,0c-8.7,0-17.3,0-26,0c-0.3,0.1-0.6-0.2-1,0c-0.1,0-0.1,0-0.2,0
	c-0.2-0.1-0.4,0-0.6,0c-0.2,0-0.5,0-0.7,0c-0.2-0.1-0.5-0.1-0.8,0c-0.4,0-0.8,0-1.2,0c-0.8-0.3-1.5-0.2-2.3,0c-0.8,0-1.6,0-2.4,0
	c-0.3,0-0.6-0.2-0.9,0c-0.3,0-0.6,0-0.9,0c-0.3-0.2-0.7-0.1-1-0.2c-2.1,0.2-4.3,0.2-6.4,0.1c-2.1-0.1-4.2-0.1-6.3-0.1
	c-0.3,0-0.6,0-0.9,0c-0.4,0-0.8,0-1.2,0C16.4,60.2,16,60.3,15.8,59.8L15.8,59.8z"/>
<path d="M198.8,27.4c-0.1,0.5,0.4,0.5,0.7,0.7c0.5,0.3,0.6,0.6,0.3,1.1c-1.3-0.1-2.6,0-3.8-0.6c-0.5-0.2-1.1-0.2-1.7-0.4
	c-0.6-0.1-1.1-0.1-1.7,0c-0.4,0.1-0.7,0.1-1.1,0.1c-0.2,0-0.3,0-0.5,0.1c-0.6,0.1-1.1,0.3-1.7,0.4c-0.2,0-0.5,0-0.7-0.1
	c0-0.6-0.9-0.8-0.6-1.5c0.6-0.4,1.2-0.5,1.9-0.3c0.4,0.1,0.7-0.2,1-0.2c0.2,0,0.4,0,0.7,0c0.7-0.1,1.4-0.1,2.1,0
	C195.6,26.7,197.2,27,198.8,27.4L198.8,27.4z"/>
<path class="st1" d="M107.4,60.2c-2.7,0-5.4,0-8,0c-1,0.3-1.9,0.4-2.9,0c-3.1,0-6.3,0-9.4,0c-0.3,0-0.7,0-1,0c0-0.1,0-0.2,0.1-0.3
	c0.4-0.2,0.8-0.1,1.3-0.1c9.5,0,19,0,28.5,0c0.4,0,0.7,0,1.1,0.1c0.1,0.1,0.2,0.2,0.1,0.3c-1.7,0-3.4,0-5.1,0.1
	C110.5,60.5,108.9,60.5,107.4,60.2L107.4,60.2z"/>
<path class="st2" d="M86,60c0,0,0,0.1,0,0.1c-1.2,0-2.5,0-3.8,0.1c-0.9,0.2-1.7,0.2-2.6,0c-3,0-6.1,0-9.1,0c0.1,0,0.1-0.1,0.2-0.1
	c0.3-0.3,0.7-0.2,1.1-0.2c4.4,0,8.8,0,13.2,0C85.3,59.8,85.7,59.8,86,60L86,60z"/>
<path class="st3" d="M25.9,60.2c-0.2,0-0.3,0-0.5,0c-0.4,0.2-0.8,0.3-1.2,0c-2,0-4.1,0-6.2-0.1c0.3-0.2,0.6-0.1,0.9-0.1
	c4.3,0,8.6,0,13,0c0,0,0.1,0.1,0.1,0.1c0,0,0,0,0,0c-0.4,0-0.8,0-1.2,0.1C29.1,60.5,27.5,60.5,25.9,60.2L25.9,60.2z"/>
<path class="st4" d="M121.3,60.2c-0.2,0-0.5,0-0.7,0.1c-1.1,0-2.3,0-3.4-0.1c0,0,0-0.1,0-0.1c0.4-0.4,0.8-0.3,1.3-0.3
	c0.7,0,1.3,0,2,0C120.7,59.8,121.1,59.7,121.3,60.2L121.3,60.2z"/>
<path d="M202.1,31.5c-0.9-0.7-0.9-0.9,0-1.4C202.1,30.6,202.1,31,202.1,31.5z"/>
<path class="st0" d="M32.6,60.2c-0.1,0-0.2,0-0.3,0c-0.1,0-0.2,0-0.3-0.1c0,0,0-0.1,0-0.1C32.1,60.1,32.5,59.6,32.6,60.2L32.6,60.2z
	"/>
<path class="st5" d="M155.2,46.1c0.4-0.2,0.7-0.3,1.1,0C155.9,46.1,155.5,46.1,155.2,46.1z"/>
<path d="M8.3,28.8c-0.2,1-0.3,1.9-0.3,2.9c0.2,0.3,0.3,0.6,0.2,0.9C7.9,33.5,8,34.4,8,35.3C8,35.7,8,36.1,8,36.5
	c-0.1,0.6,0.1,1.3-0.3,1.9C7.6,39.2,7.5,40,7,40.8c-0.2-0.3-0.2-0.6-0.2-0.9c0-3.2,0-6.4,0-9.5c0-0.3,0.1-0.6-0.1-0.9
	c-0.2-0.5,0.2-1,0.1-1.5c-0.3-0.3-0.1-0.6-0.1-1c0.3-2,0.7-4,1.3-5.9c0.1-0.3,0.2-0.7,0.5-1c0.2-0.5,0.4-1,0.6-1.5
	c0-0.8,0.3-1.4,0.9-1.9c0.2-0.3,0.5-0.7,0.7-1c0.5-0.7,1-1.4,1.9-1.7c1.4-0.9,2.8-1.6,4.4-1.6c0.3,0.1,0.4-0.3,0.7-0.1
	c0.4,0.5,1.1,0.8,1.4,1.4c-0.2,0.4-0.6,0.3-1,0.3c-3.6-0.1-5.9,2-7.3,5c-0.4,0.9-0.7,1.8-1,2.7c-0.5,2-1.1,4-1.4,6.1
	C8.5,28.2,8.5,28.5,8.3,28.8L8.3,28.8z"/>
<path class="st0" d="M122.1,58.8c0.3,0,0.7,0.2,1-0.1c0.2-0.2,0.4-0.2,0.6-0.2c0.1,0,0.2,0,0.3,0c0.7,0,1.3-0.2,1.9-0.3
	c0.3-0.1,0.6-0.2,0.9-0.2c0.6-0.1,1.2-0.5,1.8-0.2c0.1,0.6,0.4,1,1,1.3c-1.6,0.5-3.2,0.8-4.8,1c-1,0.1-1.9,0.3-2.9,0.2
	c-0.2,0-0.4,0-0.7-0.1c-1.4-0.3-2.7-0.1-4.1-0.1c-10.4,0-20.8,0-31.2,0c-5.1,0-10.2,0-15.2,0c-0.2-0.9,0.6-0.3,0.9-0.5h9.1
	c0.8-0.1,1.6-0.1,2.4,0h0.5c0.3-0.1,0.7-0.1,1,0c2.7,0,5.5,0,8.2,0c4,0,7.9-0.1,11.9-0.1c3.2,0,6.5,0,9.7,0c1.7,0,3.4,0,5.2,0
	c0.4,0,0.8-0.1,1.2-0.3c0.2-0.2,0.4-0.3,0.6-0.3C121.6,58.6,121.9,58.7,122.1,58.8L122.1,58.8z"/>
<path class="st6" d="M43,58.9c6.4,0,12.8,0,19.1,0c7.4,0,14.9,0,22.3,0c0.3,0,0.6,0,0.8,0c0.1,0,0.1,0.1,0.1,0.1c0,0,0,0-0.1,0
	c-14.1,0-28.2,0-42.3,0C43,59,42.9,59,43,58.9C43,58.9,43,58.9,43,58.9z"/>
<path class="st7" d="M121.3,58.9c-0.1,0.2-0.3,0.1-0.5,0.1c-7.7,0-15.3,0-22.9,0c-0.1-0.1,0-0.2,0.1-0.3c0.2-0.1,0.3-0.1,0.5-0.1
	c7.3,0,14.6,0,21.9,0c0.3,0,0.5,0,0.8,0.1C121.1,58.7,121.2,58.8,121.3,58.9L121.3,58.9z"/>
<path class="st6" d="M43,58.9c0,0,0,0.1,0,0.1c-5.4,0-10.7,0-16.1,0c-0.1-0.1,0-0.2,0.1-0.2c1.8,0,3.6-0.1,5.4,0c3.2,0,6.5,0,9.7,0
	C42.4,58.9,42.7,58.9,43,58.9z"/>
<path class="st8" d="M97.8,58.9c0,0,0,0.1,0,0.1c-4.2,0-8.3,0-12.5,0c0,0,0-0.1,0-0.1c3.8,0,7.5,0,11.3,0c0.3,0,0.7,0,1,0
	C97.7,58.8,97.8,58.8,97.8,58.9z"/>
<path class="st9" d="M26.9,58.9c0,0,0,0.1,0,0.1c-2.4,0-4.9,0-7.3,0c-0.3,0-0.6,0.1-0.9-0.1c1.4-0.2,2.8,0,4.2-0.1
	c1.2,0,2.5,0,3.7,0C26.7,58.8,26.8,58.8,26.9,58.9z"/>
<path class="st0" d="M83.1,59.5h-2.4C81.5,59.3,82.3,59.3,83.1,59.5z"/>
<path class="st0" d="M84.6,59.5h-1C83.9,59.3,84.3,59.3,84.6,59.5z"/>
<path d="M164.1,26.5c0.6,0,1.1,0,1.7,0c0.4,0.3,0.9,0.2,1.4,0.2c0.4,0.7,0.4,0.9-0.3,1.2c-0.2,0.1-0.4,0.1-0.5,0.2
	c-0.4,0.1-0.9,0-1.3-0.1c-0.4-0.1-0.8-0.1-1.2,0c-0.1,0-0.3,0-0.4,0c-0.4-0.1-0.9-0.1-1.3,0.1c-0.5,0.1-1.1,0.1-1.6-0.1
	c-0.8-0.4-1.6-0.1-2.4-0.2c-0.7,0-1.4,0-2.1,0c-0.5,0-0.9,0-1.4,0c-0.7,0-1.5-0.1-2.2,0.1c-0.8,0.1-1.5-0.1-2.2-0.2
	c-1-0.3-1.9-0.6-2.8-1c-0.2-0.1-0.4-0.2-0.7-0.3c-0.2-0.1-0.3-0.2-0.5-0.3c-0.2-0.1-0.5-0.2-0.7-0.4c-1-0.6-1.9-1.4-2.8-2.2
	c-1.1-1.2-2.3-2.3-3.6-3.3c-0.2-0.1-0.4-0.3-0.5-0.4c-0.2-0.1-0.4-0.3-0.6-0.5c-0.5-0.3-0.9-0.6-1.5-0.9c-0.9-0.6-1.8-1-2.8-1.4
	c-1.4-0.6-2.9-1.1-4.4-1.6c-0.3-0.1-0.6-0.1-0.7-0.4c-0.1-0.6,0-1,0.5-1.4c0.3-0.2,0.6,0.2,0.9,0.1c1.2,0,2.2,0.6,3.2,1
	c1.7,0.6,3.4,1.4,4.9,2.4c0.4,0.2,0.7,0.4,1,0.8c0.1,0.1,0.1,0.3,0.4,0.3c0.2-0.1,0.3,0.1,0.3,0.2c0.2,0.4,0.6,0.4,0.9,0.7
	c0.8,0.6,1.4,1.3,2.1,2c0.8,0.8,1.6,1.6,2.6,2.3c0.2,0,0.2,0.2,0.4,0.3c0.9,0.7,1.8,1.4,2.9,1.8c1.1,0.1,2.1,0.4,3.1,0.9
	c1.5,0.4,3,0.3,4.5,0.3c0.3-0.1,0.6,0,0.9,0c0.1,0,0.2,0,0.3,0c0.4,0.1,0.8,0,1.2,0.1c0.3,0.1,0.7,0,1,0.1c0.3,0,0.6,0,0.9,0
	c0.4,0,0.8,0,1.2,0c0.5,0,0.9,0,1.4,0C163.2,26.6,163.6,26.5,164.1,26.5L164.1,26.5z"/>
<path class="st10" d="M58.6,12.3c5.5,0,11,0,16.5,0c1.7,0,3.5,0,5.2,0c0.3,1.1,0.1,1.4-1,1.4c-0.4,0-0.8,0-1.3,0.1
	c-6.4,0.1-12.8,0.1-19.2,0.1c-0.2,0-0.4,0-0.6-0.1c-1.3-0.3-2.6-0.1-3.9-0.1c-1,0-2,0-3,0c-0.7-0.1-1.5,0.1-2.2-0.1
	c-0.3-0.8,0.3-0.8,0.7-0.8c1.2-0.1,2.5-0.1,3.7,0c1.4,0.1,2.8-0.1,4.2-0.1C58.1,12.6,58.4,12.5,58.6,12.3z"/>
<path class="st11" d="M108.6,12.3c1.4,0,2.8,0,4.3,0.1c-0.2,0.9-0.9,1.4-1.9,1.4c-1.2,0-2.4,0-3.6,0c-0.4,0-0.7,0-1.1,0.1
	c-0.7,0.1-1.4,0.1-2.1,0c-0.9-0.2-1.7-0.2-2.6,0c-0.3,0.1-0.7,0.1-1,0.1c-0.9,0.2-1.9-0.1-2.9,0c-2.2,0-4.3,0-6.5,0
	c-0.6,0-1.1,0-1.7,0c-0.2,0-0.5,0-0.7-0.1c-0.2-0.6,0-1.1,0.4-1.4c0.1,0,0.1,0,0.2,0c2.7,0.1,5.4,0.1,8,0c0.2,0,0.3,0,0.5-0.1
	c0.3-0.2,0.6-0.2,0.9-0.2c3.1,0,6.1-0.1,9.2,0.1C108.2,12.1,108.4,12.2,108.6,12.3L108.6,12.3z"/>
<path class="st12" d="M129,13.5c-0.1,0.5-0.4,0.9-0.4,1.4c-0.7,0.4-1.3-0.1-1.9-0.1c-0.3-0.1-0.6-0.1-0.9-0.2c-1-0.2-2-0.3-2.9-0.5
	c-0.2,0-0.4,0-0.7-0.1c-0.1,0-0.1-0.1-0.2-0.2c0.2-0.6,0.7-0.9,1.3-1.1c0.4,0,0.8,0,1.2,0c0.8-0.3,1.6-0.2,2.2,0.3
	C127.5,13,128.3,13.2,129,13.5L129,13.5z"/>
<path class="st13" d="M123.3,12.6c-0.3,0.5-0.9,0.7-1.2,1.2c-0.3,0.3-0.7,0.3-1,0.2c-0.8-0.1-1.6-0.1-2.4-0.2
	c-0.3-0.1-0.6-0.1-0.9-0.1c-0.9-0.1-1.2-0.4-1.3-1.4c2.2-0.2,4.5,0.1,6.7,0.2C123.2,12.5,123.3,12.6,123.3,12.6L123.3,12.6z"/>
<path class="st14" d="M116.5,12.3c0.2,1.2,1.2,1.1,2.1,1.3c-0.1,0.1-0.1,0.1-0.2,0.2c-0.5,0.2-1,0.3-1.5,0.2c-0.8-0.2-1.7-0.1-2.5,0
	c-0.2,0-0.4,0-0.6,0c-0.5-0.1-1-0.1-1.6-0.1c-0.4,0-0.9,0-1.3,0c-0.5,0-0.9,0-1.4,0c-0.7,0-1.4,0-2.2,0c-0.3,0-0.6,0-0.8-0.3
	c0.8-0.3,1.6-0.1,2.3-0.1c0.6,0,1.2-0.1,1.8,0c1.1,0.1,1.8-0.4,2.4-1.2C114.1,12.3,115.3,12.3,116.5,12.3L116.5,12.3z"/>
<path class="st15" d="M58.6,12.3c-0.1,0.5-0.4,0.6-0.8,0.6c-2.6,0-5.2,0-7.8,0c-0.4,0-0.7,0-0.8,0.5c-0.1,0.2-0.3,0.2-0.5,0.2
	c-0.3,0-0.5,0-0.8-0.1c-0.2-0.1-0.5-0.2-0.5-0.5c0-0.3,0.3-0.3,0.5-0.3c0.3,0,0.6-0.1,0.7-0.5C52,12.3,55.3,12.3,58.6,12.3
	L58.6,12.3z"/>
<path class="st16" d="M78.3,13.6c0.4-0.3,0.8-0.1,1.2-0.1c0.5,0,1,0,0.8-0.8c0-0.1,0.1-0.3,0.1-0.4c1.7,0,3.3,0,5,0
	c0.1,0.8-0.2,1.2-1.1,1.2c-0.6,0-1.2,0.1-1.8,0.3c-1.1,0.1-2.2,0-3.4,0C78.8,13.9,78.5,13.9,78.3,13.6L78.3,13.6z"/>
<path class="st17" d="M82.6,13.6c0.4-0.3,0.9-0.4,1.4-0.3c0.8,0.1,1.2-0.2,1.4-1h3.9c-0.3,0.4-0.1,1-0.5,1.3
	c-0.2,0.2-0.4,0.2-0.7,0.3c-1.6,0-3.2,0-4.8,0C83,13.9,82.8,13.8,82.6,13.6L82.6,13.6z"/>
<path class="st18" d="M19.2,13.7c-0.5-0.4-1.2-0.6-1.4-1.4c1.3,0,2.5,0,3.8-0.1c0,0,0.1,0.1,0.1,0.1c0.2,0.5,0.7,0.4,1.1,0.4
	c0.7,0.1,0.9,0.5,0.5,1C21.9,13.9,20.6,14.1,19.2,13.7L19.2,13.7z"/>
<path class="st7" d="M48.7,12.3c0.4,0.8-0.2,0.6-0.6,0.6c-0.2,0-0.4-0.1-0.5,0.2c0,0.1,0.2,0.2,0.2,0.3c-0.3,0.4-0.8,0.2-1.2,0.3
	c-0.7,0-1.4,0.1-2.1-0.1c-0.5-0.4-0.1-0.6,0.2-0.8c0.3-0.1,0.7-0.1,1-0.1c0.5,0,0.2-0.3,0.2-0.4l0-0.1
	C46.8,12.3,47.7,12.3,48.7,12.3L48.7,12.3z"/>
<path class="st19" d="M97.5,12.3c-0.1,0.1-0.3,0.1-0.5,0.1c-2.4,0-4.7,0-7.1,0c-0.2,0-0.3,0-0.5-0.1H97.5L97.5,12.3z"/>
<path class="st20" d="M177.8,44.3c0,0.5,0.2,0.7,0.7,0.7c0.4,0,0.7,0,0.6,0.5c0,0.1-0.1,0.1-0.2,0.2c-1.1,0-2.3,0-3.4,0
	c-0.1,0-0.2,0-0.3,0c-0.1,0-0.2,0-0.3-0.1c-0.9-0.3-0.9-0.4-0.3-1.1c0.1-0.1,0.2-0.2,0.4-0.3C176,44,176.9,43.8,177.8,44.3
	L177.8,44.3z"/>
<path class="st21" d="M191.3,45.9c0.9-0.2,1.7-0.2,2.6,0C193,45.9,192.2,45.9,191.3,45.9z"/>
<path class="st22" d="M194.2,45.9c0.5-0.2,0.9-0.2,1.4,0C195.1,45.9,194.7,45.9,194.2,45.9z"/>
<path d="M174.7,26.9c0.4,0,0.8,0,1.2,0c0.4-0.1,0.7-0.1,1.1,0c0.9,0,1.7,0,2.6,0c0.3,0.1,0.6,0,0.9,0.1c2.2,0,4.4-0.1,6.7,0.2
	c0.3,0.4,0,0.5-0.2,0.8c-0.4,0.3-0.8,0.3-1.2,0.5c-0.3,0.1-0.6,0.1-0.9,0c-0.4-0.1-0.9-0.1-1.4-0.1c-0.4,0-0.8,0-1.1,0
	c-0.3,0-0.6,0-0.9,0c-0.4,0-0.8,0-1.2,0.1c-1.9,0-3.7-0.1-5.5-0.2c-0.4-0.1-0.8-0.2-1.2,0c-0.6,0.1-1.1,0-1.7-0.1
	c-0.6,0-1.2,0-1.7-0.1c-0.6-0.2-1.1-0.2-1.6,0c-0.2,0-0.5,0.1-0.7,0.1c-0.4,0-0.8,0.1-1.1-0.3c0-0.1,0.1-0.3,0.2-0.3
	c0.8,0,0.9-0.4,0.6-1c0.9,0,1.8,0,2.7-0.1c0.2,0,0.4,0,0.5,0.1c0.5,0,0.9-0.1,1.4-0.1c0.5,0,0.9,0.2,1.3,0.1
	C173.7,26.9,174.2,26.7,174.7,26.9L174.7,26.9z"/>
<path class="st23" d="M158.2,26.4c0.1,0,0.1,0,0.2-0.1c0.3,0,0.6,0,0.9,0.1c0.1,0,0.1,0.1,0.1,0.1s0,0-0.1,0c-0.3,0-0.7,0-1,0
	C158.2,26.5,158.2,26.5,158.2,26.4C158.2,26.4,158.2,26.4,158.2,26.4L158.2,26.4z"/>
<path class="st24" d="M159.3,26.6c0,0,0-0.1,0-0.1c0.3,0,0.6,0,0.9,0c0,0,0,0.1,0,0.1C159.9,26.6,159.6,26.6,159.3,26.6z"/>
<path class="st12" d="M174.4,44.4c0.2,0,0.4,0,0.7,0c-0.1,0.3-0.4,0.5-0.7,0.7c0.3,0.2,0.8,0.2,1,0.5c-0.3,0-0.7,0-1,0.1
	c-0.7,0-1.4,0-2.1-0.1c-0.1-0.3-0.4-0.3-0.6-0.5c0.2-0.4,0.6-0.4,0.9-0.4c0.3,0,0.7,0.1,0.9-0.3C173.8,44.2,174.1,44.3,174.4,44.4
	L174.4,44.4z"/>
<path class="st17" d="M157.7,44.6c0.6,0,1.2,0,1.9,0C159,44.8,158.4,44.8,157.7,44.6z"/>
<path class="st25" d="M163.2,44.6c0.3-0.3,0.7-0.1,1.1-0.2c0.2,0.1,0.4-0.1,0.5,0.2C164.2,44.6,163.7,44.6,163.2,44.6L163.2,44.6z"
	/>
<path class="st26" d="M166,44.4c0.5,0,0.9,0,1.4-0.1c0.1,0,0.1,0,0.2,0.1C167,44.7,166.5,44.7,166,44.4z"/>
<path d="M200.6,30.1c-0.2,0-0.2-0.2-0.2-0.3c0-0.2,0-0.5,0.2-0.6c0.1-0.1,0.2-0.4,0.5-0.3c0.2,0,0.2,0.3,0.2,0.4
	c0.1,0.2,0.1,0.4-0.2,0.5C200.8,29.8,200.6,29.9,200.6,30.1L200.6,30.1z"/>
<path class="st27" d="M201.1,39c0-0.6,0-1.2,0-1.9C201.3,37.7,201.3,38.3,201.1,39z"/>
<path class="st28" d="M187.2,43.9c0.2,0,0.5,0,0.7-0.1c0.3-0.1,0.6-0.1,0.9,0c0.1,0,0.3,0,0.4,0.2C188.5,44,187.8,44.2,187.2,43.9z"
	/>
<path class="st0" d="M38.9,60.2c-0.6,0-1.2,0-1.9,0C37.5,59.8,38.4,59.8,38.9,60.2z"/>
<path class="st0" d="M42.8,60.2c-0.1,0-0.2,0-0.3-0.1c0.2-0.5,0.3-0.2,0.5,0C43,60.2,42.9,60.2,42.8,60.2z"/>
<path class="st0" d="M42.3,60.2c-0.2,0-0.3,0-0.5,0C42,59.7,42.2,60,42.3,60.2z"/>
<path class="st0" d="M41,60.2c-0.2,0-0.3,0-0.5,0C40.6,59.7,40.8,60,41,60.2z"/>
<path class="st0" d="M34.1,60.2c-0.2,0-0.3,0-0.5,0C33.8,59.7,33.9,60,34.1,60.2z"/>
<path class="st29" d="M188.7,28.6c-0.8,0-1.6,0-2.5,0c-0.2,0-0.4-0.1-0.6-0.2c0-0.2,0.2-0.2,0.4-0.3c0.5-0.1,0.9-0.2,1-0.9l0,0
	c0.4-0.1,0.7-0.1,1.1,0c0.1,0,0.1,0,0.2,0C188.1,27.8,189,28,188.7,28.6L188.7,28.6z"/>
<path class="st30" d="M18.2,48.8c0-0.2,0-0.4,0-0.7c0.3-0.1,0.5-0.3,0.8-0.4c0.2,0.1,0.2,0.2,0.2,0.4c0,0.7,0.3,1.4,0.2,2.1
	c-0.3,0.2-0.3,0.7-0.7,1c-0.2,0-0.1-0.3-0.2-0.4C18.5,50.2,18.4,49.5,18.2,48.8L18.2,48.8z"/>
<path d="M18.7,51.2c0.3-0.2-0.1-0.9,0.6-0.8c0.3,0.2,0.2,0.6,0.4,0.8c0.1,0.3,0.1,0.5,0.1,0.8c0,0.1,0,0.2,0,0.3
	c-0.1,0.4-0.3,0.7-0.9,0.4c0-0.2,0-0.5-0.1-0.7C18.6,51.8,18.5,51.5,18.7,51.2L18.7,51.2z"/>
<path class="st31" d="M18.9,52.7c0.4,0,0.6-0.1,0.7-0.5c0.5,0.2,0.4,0.7,0.6,1c0,0.4,0,0.7-0.3,1c-0.3,0.1-0.5,0-0.7-0.2
	c-0.1-0.1-0.2-0.2-0.2-0.3C19,53.4,18.9,53.1,18.9,52.7z"/>
<path class="st32" d="M19.9,54.2c0-0.3,0.1-0.6,0.2-1c0.1-0.1,0.1-0.1,0.2,0c0.2,0.3,0.6,0.5,0.4,0.9c-0.2,0.1-0.4,0-0.6,0.1l0,0
	C20,54.3,20,54.3,19.9,54.2L19.9,54.2z"/>
<path class="st33" d="M158.9,27.8c-0.3,0-0.6,0-0.9,0c-0.1,0-0.1-0.1-0.1-0.1s0,0,0.1,0c0.6,0,1.2,0,1.7,0c0.3,0,0.6-0.1,0.7,0.3
	l-0.1,0h-0.1C159.9,27.7,159.4,27.9,158.9,27.8L158.9,27.8z"/>
<path class="st34" d="M154.5,27.7c-0.8,0-1.5,0-2.2,0c0.7-0.3,1.5-0.1,2.2-0.1C154.5,27.6,154.6,27.7,154.5,27.7
	C154.5,27.7,154.5,27.7,154.5,27.7L154.5,27.7z"/>
<path class="st35" d="M158.1,27.6c0,0,0,0.1,0,0.1c-0.7,0-1.5,0-2.2,0c-0.1,0-0.1,0-0.1-0.1s0,0,0.1,0
	C156.6,27.6,157.3,27.6,158.1,27.6L158.1,27.6z"/>
<path class="st36" d="M155.9,27.6c0,0,0,0.1,0,0.1l-0.4,0.1l-1-0.1c0,0,0-0.1,0-0.1C154.9,27.6,155.4,27.6,155.9,27.6L155.9,27.6z"
	/>
<path class="st37" d="M164.9,27.9c-0.4,0-0.8,0-1.2,0C164.1,27.6,164.5,27.7,164.9,27.9z"/>
<path class="st38" d="M27.9,13.6c-0.2,0-0.5,0-0.7,0c-0.4-0.2-0.6-0.5-0.9-0.7c-0.2-0.2-0.3-0.4,0-0.6c0.1,0,0.2,0,0.3-0.1
	c1.8-0.1,3.6,0,5.5-0.1c2,0,4,0,5.9,0c0.6,0,1.3,0,1.9,0c0.5,0,0.9,0,1.4,0c0.5,0,1-0.1,1.5,0.1c0,0,0.1,0,0.2,0.1
	c0.7,0.2,0.5,0.6,0.1,0.8c-0.4,0.2-0.8,0.4-1.3,0.5c-1.9,0-3.7,0-5.6,0c-2.2,0-4.5,0-6.7,0C29.1,13.6,28.5,13.5,27.9,13.6L27.9,13.6
	z"/>
<path class="st39" d="M26.4,12.3c-0.2,0.3,0,0.5,0.2,0.6c0.3,0.2,0.5,0.4,0.6,0.7c-0.3,0-0.6,0-0.9,0.1c-0.3,0.1-0.7,0.1-1,0
	c-0.6,0-1.2,0-1.9-0.1c-0.1-0.7-0.7-0.6-1.2-0.7c-0.4,0-1,0.1-0.7-0.6c0.4,0,0.7,0,1-0.1c0.4,0,0.8,0,1.2,0c0.4-0.1,0.7,0,1.1-0.1
	c0.5,0,0.9-0.1,1.4,0.1C26.3,12.3,26.4,12.3,26.4,12.3L26.4,12.3z"/>
<path class="st13" d="M42.2,13.4c0.2-0.3,0.5-0.5,0.9-0.5c0.5-0.1,0.5-0.3,0.1-0.6c0,0,0.1,0,0.2-0.1c0.4-0.1,0.8-0.1,1.2,0l1.4,0.1
	c0.1,0.2,0.7,0,0.6,0.4c-0.1,0.4-0.5,0.2-0.8,0.2c-0.5,0.1-1.1-0.2-1.4,0.5c-0.2,0.2-0.4,0.1-0.5,0.1c-0.4,0-0.9,0-1.3,0
	C42.4,13.5,42.3,13.6,42.2,13.4L42.2,13.4z"/>
<path class="st14" d="M104.1,13.6c-0.7,0-1.5,0-2.2,0.1c-0.1,0.1-0.2,0.1-0.3-0.1C102.4,13.4,103.3,13.4,104.1,13.6z"/>
<path class="st40" d="M174.7,26.9h-1.6c-0.1,0-0.1,0-0.1-0.1s0,0,0.1,0C173.7,26.8,174.2,26.6,174.7,26.9z"/>
<path d="M170.6,26.7c0.4,0,0.8,0,1.2,0.1c0.1,0,0.1,0.1,0.1,0.1s0,0-0.1,0c-0.5-0.1-0.9,0.1-1.4-0.1
	C170.5,26.7,170.5,26.7,170.6,26.7L170.6,26.7z"/>
<path class="st41" d="M171.8,26.9c0,0,0-0.1,0-0.1c0.3,0,0.6,0,0.9,0c0.2,0,0.3,0,0.5,0.1c0,0,0,0.1,0,0.1
	C172.7,26.9,172.2,26.9,171.8,26.9L171.8,26.9z"/>
<path class="st42" d="M180.4,27.1c-0.3,0-0.6,0.1-0.9-0.1C179.8,26.9,180.1,26.8,180.4,27.1z"/>
<path class="st11" d="M17.9,26.9c0-0.8,0.1-1.6,0.2-2.4c-0.1-0.9,0-1.8,0.5-2.6c-0.1-0.4,0.3-0.8,0.2-1.2c-0.1-0.3-0.1-0.5,0.2-0.7
	c0-0.4,0-0.8,0.2-1.2c0.4,0,0.9-0.4,1,0.3c-0.5,2.4-0.9,4.8-1.2,7.3c0,0.4-0.1,0.8-0.3,1.1C18,27.9,18,27.3,17.9,26.9L17.9,26.9z"/>
<path class="st43" d="M17.4,31.5c0.4-0.4,0-0.8,0.2-1.2c0.4-0.4,0.7-0.3,1,0.1c0.3,1.3-0.1,2.5-0.1,3.8c-0.2,0.6-0.1,1.2-0.1,1.8
	c0,0.4-0.1,0.8-0.7,0.7c-0.2-0.1-0.2-0.3-0.2-0.5c0-0.5,0-1-0.1-1.5c0-0.9-0.1-1.7,0-2.6C17.3,31.8,17.3,31.7,17.4,31.5L17.4,31.5z"
	/>
<path class="st44" d="M18.3,30.3c-0.3-0.1-0.5-0.1-0.8,0c0-0.5,0-0.9-0.1-1.4c0-0.4,0.3-0.6,0.2-1c-0.1-0.4-0.1-0.7,0.2-1l0.1,0
	c0.2,0.3,0.4,0.6,0.6,0.8C19,28.6,19,29.5,18.3,30.3z"/>
<path class="st45" d="M18.9,47.8c0.1,0.6-0.3,0.4-0.7,0.4c-0.2-0.5-0.3-1-0.2-1.5c0.1-0.4-0.2-1.1,0.7-1c0.2,0.5,0.3,1.1,0.3,1.6
	C19.1,47.5,19,47.7,18.9,47.8L18.9,47.8z"/>
<path class="st46" d="M20.1,19.1c-0.3-0.2-0.7,0.2-1-0.1c0-0.2,0-0.3,0-0.5c0.3-0.3,0.7-0.1,1-0.3c0.4,0.2,1.1,0.2,0.5,0.9
	c0,0.1-0.1,0.1-0.2,0.1C20.3,19.2,20.1,19.2,20.1,19.1L20.1,19.1z"/>
<path class="st10" d="M18.7,45.6c-0.5,0.2-0.4,0.7-0.6,1c-0.1-0.2-0.1-0.3-0.2-0.5c0-0.3,0-0.6,0.1-0.8c0.2-0.4,0-1,0.8-1
	C18.8,44.7,19.1,45.2,18.7,45.6L18.7,45.6z"/>
<path class="st47" d="M43.2,54.1c0,0,0,0.1,0,0.1c-5.8,0-11.5,0-17.2,0c-2,0-3.9,0-5.9,0c0.1-0.2,0.3-0.1,0.5-0.2
	c0.3-0.2,0.6-0.3,1-0.3c6.9,0,13.8,0,20.7,0C42.6,53.8,42.9,53.8,43.2,54.1L43.2,54.1z"/>
<path class="st48" d="M69.9,38.1c0,1.2,0,2.5,0,3.7c-0.1,0.3-0.2,0.8-0.7,0.5c-0.2-0.3-0.2-0.6-0.3-1c-0.1-1.1-0.2-2.2,0-3.3
	C69.2,37.9,69.5,37.8,69.9,38.1z"/>
<path class="st14" d="M69.2,42.4c0.4,0,0.4-0.3,0.6-0.5c0.2,1.3,0.3,2.6,0.4,3.9c0.1,0.8,0,0.8-0.7,0.6c-0.2-0.2-0.2-0.4-0.3-0.7
	c0-1-0.3-1.9-0.2-2.9C69,42.6,69.1,42.5,69.2,42.4z"/>
<path class="st49" d="M70.2,54.2L70.2,54.2l-0.2,0c-0.3-0.3-0.2-0.6-0.1-0.9c0.3-0.3,0.4-0.7,0.3-1.2c-0.1-0.4-0.3-0.8-0.1-1.2
	c0.4,0,0.4-0.5,0.8-0.6c0.3,0.7,0.3,1.5,0.4,2.2c0.2,0.7-0.2,1.1-0.6,1.5C70.5,54.2,70.3,54.1,70.2,54.2L70.2,54.2z"/>
<path class="st50" d="M69.9,34.5c0,0.7,0,1.5,0,2.2c-0.3,0.2-0.4,0.7-0.9,0.7c-0.1-0.1-0.1-0.1-0.1-0.2c-0.1-0.6,0-1.2-0.1-1.9
	c-0.1-0.3-0.1-0.5,0-0.8C69.1,34.3,69.5,34.4,69.9,34.5L69.9,34.5z"/>
<path class="st14" d="M70.9,50.4c-0.2,0.2-0.1,0.8-0.6,0.5c-0.2-0.1-0.3-0.3-0.3-0.5c-0.1-0.4,0-0.8-0.2-1.2c0-0.2-0.1-0.4,0-0.6
	c0.3-0.3,0.3-0.7,0.8-0.9C70.7,48.6,71,49.4,70.9,50.4L70.9,50.4z"/>
<path class="st51" d="M69.9,30.8c0,0.6,0,1.1,0.1,1.7l-0.1,0.7c-0.4,0.2-0.6,0-0.7-0.3c-0.1-0.3-0.1-0.6-0.3-0.9
	c-0.2-0.6-0.2-1.1,0.1-1.6C69.6,30.1,69.7,30.5,69.9,30.8L69.9,30.8z"/>
<path class="st52" d="M69.1,32c0.4,0.1,0.3,0.4,0.3,0.7c0,0.3,0.1,0.5,0.5,0.5c0,0.5,0,0.9,0,1.4c-0.3,0.1-0.7,0.1-1,0
	C68.4,33.7,68.7,32.8,69.1,32z"/>
<path class="st30" d="M70.6,47.6c-0.2,0.3-0.2,0.8-0.6,0.8c-0.5-0.3-0.3-0.9-0.5-1.3c0-0.1,0-0.2-0.1-0.3c0-0.2,0-0.5,0.2-0.6
	c0.5,0.2,0.7,0,0.7-0.5C70.6,46.4,70.4,47,70.6,47.6z"/>
<path class="st53" d="M69.1,37.4c0.2-0.3,0.4-0.7,0.8-0.7c0,0.5,0,0.9,0,1.4c-0.3,0-0.7,0-1,0C68.6,37.8,68.7,37.6,69.1,37.4z"/>
<path class="st54" d="M70.6,54.1c0-0.1,0-0.3,0.1-0.4c0.3-0.2,0.7-0.4,0.3-0.9c-0.1-0.1,0.2-0.2,0.3-0.2c0.1,0.5,0.5,1,0.2,1.6
	C71.2,54.2,70.9,54.3,70.6,54.1L70.6,54.1z"/>
<path class="st55" d="M69.9,54.2c-0.1-0.2-0.3-0.1-0.5-0.2c-0.1-0.2,0-0.4,0.1-0.6c0.1-0.1,0.1-0.1,0.2-0.2c0.1-0.1,0.3-0.1,0.4,0
	c0,0.3,0,0.6,0,1C70,54.2,70,54.2,69.9,54.2z"/>
<path class="st55" d="M20.2,53.3c0.1,0,0.1,0,0.2,0c0.3,0.1,0.6,0,0.9,0c7.2,0,14.4,0,21.7,0c0.5,0,1,0,1.4,0c0.2-0.1,0.5,0.3,0.7,0
	c0.3,0,0.5,0,0.8,0c0.2,0,0.3,0.3,0.5,0.4c-0.1-0.2-0.2-0.3,0.1-0.4c0.5,0,0.9,0,1.4,0c0.1,0,0.1,0,0.2,0c0.3,0.2,0.3,0.2,0.5,0
	c0.5,0,0.9,0,1.4,0c0.2,0,0.5,0.3,0.7,0c0.1,0,0.1,0,0.2,0c0,0,0.1,0,0.2,0.1c0.1,0.1,0.2,0.2,0.3,0.3c0-0.1,0-0.2,0-0.3
	c0.1,0,0.1-0.1,0.2,0c0.1,0,0.2,0.1,0.2,0.1c0.1,0.1,0.2,0.2,0.2,0.3c0-0.1,0-0.3,0-0.4c0.1,0,0.1-0.1,0.2,0c0.1,0,0.2,0.1,0.2,0.1
	c0.1,0.1,0.2,0.2,0.2,0.3c0-0.1,0-0.3,0-0.4c0.1,0,0.1-0.1,0.2,0c0.2,0.2,0.5-0.1,0.7,0c1,0,2.1,0,3.1,0c0.3-0.1,0.5,0.2,0.8,0
	c0.1,0,0.1,0,0.2,0c0,0,0.1,0,0.2,0.1c0.1,0.1,0.2,0.2,0.3,0.3c0-0.1,0-0.2,0-0.3c0.1,0,0.1-0.1,0.2,0c0.1,0,0.1,0.1,0.2,0.1
	c0.1,0.1,0.1,0.2,0.2,0.3c-0.1-0.1,0-0.2,0-0.4c0.1,0,0.1,0,0.2,0c0.2,0.2,0.3-0.1,0.5,0c0.4,0,0.9,0,1.3,0c0.2,0,0.4,0.3,0.7,0
	c0.1,0,0.1,0,0.2,0c0.2,0.2,0.3,0.1,0.5,0c0.3,0,0.5,0,0.8,0c0.2,0,0.4,0.4,0.6,0c0.1,0,0.2,0,0.2,0c1.2,0.4,2.5,0.3,3.7,0.2
	c0.6-0.1,1.2,0.3,1.7-0.2c0.1,0,0.2,0,0.2,0h0c0,0.2,0,0.5-0.2,0.7c-0.9,0-1.7,0-2.6,0c-7.9,0-15.8,0-23.6,0c-7.4,0-14.8,0-22.2,0
	c-0.1,0-0.3,0-0.4,0C20.8,53.7,20.1,53.7,20.2,53.3L20.2,53.3z"/>
<path class="st56" d="M20.9,18c0.1,0,0.1,0,0.2,0c0.3-0.1,0.6,0,0.9,0c0.3,0.5,0.1,0.8-0.4,1c-0.4,0-0.8,0.1-1.2-0.1
	c0.6-0.6-0.4-0.5-0.4-0.8C20.4,18.1,20.6,18,20.9,18L20.9,18z"/>
<path class="st57" d="M71.5,18.2c0.1,0.1,0.1,0.1,0.2,0.2c-0.2,1.4-0.5,2.7-0.7,4.1c-0.3,0.1-0.5,0.2-0.8,0
	c-0.2-0.6,0.2-1.2,0.2-1.9c0-0.4,0-0.9,0.3-1.2c0-0.1,0-0.1,0.1-0.2c0-0.4-0.2-0.8,0.3-1.1C71.1,18.2,71.3,18.1,71.5,18.2z"/>
<path class="st0" d="M69.2,30.3c-0.2-0.9,0.3-1.7,0.1-2.5c-0.1-0.2-0.1-0.4,0-0.6c0.1-0.1,0.1-0.1,0.2-0.2c0.2-0.2,0.2-0.6,0.5-0.5
	c0.3,0.1,0,0.5,0.2,0.7c-0.1,1.2-0.2,2.5-0.3,3.7C69.6,30.7,69.4,30.5,69.2,30.3L69.2,30.3z"/>
<path class="st58" d="M70.2,27.1c-0.2-0.1-0.1-0.4-0.2-0.5c-0.3,0.1-0.2,0.5-0.6,0.5c-0.1,0-0.1,0-0.1-0.1c0,0,0-0.1,0-0.1
	c0-0.1,0-0.2,0.1-0.3c0-0.1,0-0.2,0.1-0.4c0.1-0.3-0.1-0.7,0.2-1c0.2-0.1,0.4-0.2,0.7,0C70.5,25.8,70.4,26.4,70.2,27.1L70.2,27.1z"
	/>
<path class="st59" d="M70.1,22.5c0.3,0.1,0.5-0.2,0.8,0c-0.1,0.6-0.2,1.2-0.3,1.9c-0.3,0-0.5-0.3-0.7-0.5c-0.1-0.1,0-0.2,0-0.3
	C70,23.2,69.8,22.8,70.1,22.5L70.1,22.5z"/>
<path class="st60" d="M69.9,23.8c0.4-0.1,0.5,0.3,0.6,0.5c0.1,0.3,0.1,0.6-0.2,0.9c-0.2,0-0.4,0-0.7,0c0-0.2,0-0.5,0-0.7
	C69.6,24.3,69.6,24,69.9,23.8L69.9,23.8z"/>
<path class="st61" d="M18.2,34.2c0,0.1,0,0.2,0,0.3c0.1,0.8,0,1.5,0.1,2.3c0,0.3,0,0.6,0,0.9c0,0.3,0.1,0.7,0,1.1
	c-0.3,0.2-0.6,0.2-0.9,0c0-0.2,0-0.5-0.1-0.7c0-0.1,0-0.2,0-0.3c0.1-0.4-0.1-0.9,0.2-1.3c0.5,0,0.5-0.3,0.5-0.7
	C18.1,35.4,17.9,34.8,18.2,34.2L18.2,34.2z"/>
<path class="st62" d="M18.3,42.7c0.4,0.5,0.2,1,0.2,1.5c-0.2,0.3-0.4,0.7-0.6,1c-0.3-0.9-0.2-1.8-0.4-2.7
	C17.8,42.4,18,42.8,18.3,42.7L18.3,42.7z"/>
<path class="st63" d="M18.2,40.5c0,0,0,0.1,0,0.2c0.1,1.1,0.1,1.1-0.7,0.9c0-0.2,0-0.5-0.1-0.7c0-0.1-0.1-0.2-0.1-0.3
	c0.1-0.4,0-0.7,0.2-1.1c0.2-0.4,0.4-0.6,0.7-0.1C18.4,39.8,18.5,40.1,18.2,40.5z"/>
<path class="st57" d="M17.5,41.5c0.9,0.2,0.5-0.5,0.7-0.9c0.4,0.7,0.1,1.4,0.1,2.1c-0.3,0.2-0.5-0.1-0.8-0.2
	C17.5,42.5,17.5,41.5,17.5,41.5z"/>
<path class="st64" d="M18.2,39.3c-0.5-0.2-0.5,0.2-0.5,0.5c-0.1,0.3,0.1,0.6-0.1,0.9c-0.5-0.5-0.2-1.1-0.2-1.7c0-0.1,0-0.1,0.1-0.2
	c0.3,0,0.5,0,0.8,0c0.1,0.1,0.2,0.2,0.2,0.3C18.4,39.3,18.4,39.3,18.2,39.3L18.2,39.3z"/>
<path class="st65" d="M17.4,37.9c0-0.6,0-1.2,0-1.9c0-0.1,0.1-0.1,0.1,0c0,0.2,0,0.3,0,0.5C17.4,37,17.7,37.5,17.4,37.9L17.4,37.9z"
	/>
<path class="st66" d="M17.5,36.1c0,0-0.1,0-0.1,0c0-0.3,0-0.6-0.1-0.8c0-0.2,0-0.3,0.1-0.5C17.6,35.2,17.4,35.6,17.5,36.1L17.5,36.1
	z"/>
<path class="st23" d="M65.8,19.1c-5.6,0-11.3,0-16.9,0c-2,0-3.9,0-5.9,0c-0.4-0.3-0.8-0.2-1.2-0.2c-4,0-8,0-12,0
	c-0.4,0-0.9,0.2-1.1-0.5c0.4-0.3,0.9-0.2,1.3-0.2c6.7,0,13.4,0,20,0c4.8,0,9.6,0,14.5,0c0.4,0,0.9,0,1.3,0.1
	C66.2,18.5,66.2,18.8,65.8,19.1L65.8,19.1z"/>
<path class="st67" d="M28.6,18.4c0.3,0.3,0.6,0.2,1,0.2c4.1,0,8.2,0,12.3,0c0.4,0,0.9-0.1,1.1,0.5c-4.9,0-9.8,0-14.8,0
	c-1.5,0-3.1,0-4.6,0c-0.2-0.5,0.2-0.6,0.5-0.7c0.3-0.2,0.6-0.2,1-0.3c0.9,0,1.8,0,2.7,0C28.1,18.1,28.4,18.2,28.6,18.4L28.6,18.4z"
	/>
<path class="st68" d="M65.8,19.1c0-0.2,0.4-0.5-0.2-0.6c-0.3-0.1-0.6-0.1-0.9-0.1c-4.9,0-9.8,0-14.7,0c-0.1-0.2-0.1-0.3,0.1-0.4
	c5.4,0,10.7,0,16.1,0c0.8,0.3,0.8,0.4,0.4,1.1H65.8L65.8,19.1z"/>
<path class="st69" d="M64,53.3c0.9,0,1.9,0,2.8,0c0,0.1,0,0.2-0.1,0.2c-0.9,0.1-1.9,0.2-2.8-0.1c-0.1,0-0.1,0-0.2,0
	c-0.2,0.1-0.3,0.1-0.5,0c-0.3,0-0.7,0-1,0c-0.1,0.1-0.2,0.1-0.3,0c-0.1,0-0.1,0-0.2,0c-0.2,0.1-0.3,0.1-0.5,0h-1.7
	c-0.1,0.1-0.2,0.1-0.3,0c-0.1,0-0.1,0-0.2,0c-0.2,0.1-0.3,0.1-0.5,0c-0.1,0-0.1,0-0.2,0c-0.2,0.1-0.3,0.1-0.5,0c-0.1,0-0.1,0-0.2,0
	c-0.2,0.1-0.3,0.1-0.5,0h-3.8c-0.1,0.1-0.2,0.1-0.3,0c-0.1,0-0.1,0-0.2,0c-0.2,0.1-0.3,0.1-0.5,0c-0.1,0-0.1,0-0.2,0
	c-0.2,0.1-0.3,0.1-0.5,0c-0.1,0-0.1,0-0.2,0c-0.2,0.1-0.3,0.1-0.5,0c-0.1,0-0.1,0-0.2,0c-0.2,0.1-0.3,0.1-0.5,0c-0.6,0-1.1,0-1.7,0
	c-0.1,0.1-0.2,0.1-0.3,0c-0.6,0-1.1,0-1.7,0c-0.1,0.1-0.2,0.1-0.3,0c-0.3,0-0.7,0-1,0c-0.1,0.1-0.2,0.1-0.3,0h-0.1c-0.5,0-1,0-1.5,0
	c-0.1,0-0.1-0.1-0.1-0.1c0,0,0,0,0.1,0"/>
<path class="st70" d="M43.2,53.3c0,0,0,0.1,0,0.1c-7.4,0-14.8,0-22.1,0c-0.2,0-0.5,0-0.6-0.1c5.6,0,11.3,0,16.9,0
	C39.3,53.2,41.2,53.3,43.2,53.3z"/>
<path class="st71" d="M70.9,18.2c-0.1,0.3-0.2,0.7-0.3,1c-0.1-0.1-0.1-0.1-0.2-0.2c-0.6-0.2-1.2,0-1.8-0.1c-0.4-0.2-0.7-0.4-0.4-0.9
	c0.2,0,0.5,0,0.7-0.1c0.4,0,0.8,0,1.2,0C70.3,18.2,70.7,18,70.9,18.2L70.9,18.2z"/>
<path class="st72" d="M68.2,18.1c-0.1,0.3,0.2,0.5,0.3,0.8c0,0.1-0.1,0.1-0.2,0.2h-1.7c0.2-0.4,0.1-0.7-0.2-1c0.3-0.2,0.7-0.1,1,0
	C67.7,18.1,68,18.1,68.2,18.1z"/>
<path class="st73" d="M22,19.1l-0.2-0.2c0.2-0.2,0.2-0.5,0.3-0.8c0.3-0.2,0.6-0.1,0.9-0.1c0.1,0,0.3,0,0.4,0c0.3,0.5-0.1,0.8-0.5,1
	C22.6,19,22.3,19,22,19.1L22,19.1z"/>
<path class="st74" d="M23,19.1c0.2-0.3,0.3-0.6,0.5-1c0.5-0.2,1-0.2,1.5,0c-0.3,0.5-1.2,0.2-1.4,1C23.4,19.1,23.2,19.1,23,19.1
	L23,19.1z"/>
<path class="st75" d="M66.8,53.4c0,0,0-0.1,0-0.1c0.9,0,1.8-0.2,2.8,0.1l-0.2,0C68.5,53.5,67.7,53.7,66.8,53.4L66.8,53.4z"/>
<path class="st55" d="M66.8,53.4c0.8,0,1.7,0,2.6,0c-0.2,0.2-0.2,0.4-0.7,0.3c-1.2-0.1-2.4,0.2-3.6,0c-0.4,0-1,0.2-1.2-0.4
	C64.9,53.4,65.8,53.4,66.8,53.4L66.8,53.4z"/>
<path class="st55" d="M63.2,53.4c0.2,0,0.3,0,0.5,0c0,0.1,0,0.3-0.1,0.4C63.4,53.8,63.3,53.6,63.2,53.4z"/>
<path class="st55" d="M61.2,53.4c0.2,0,0.3,0,0.5,0c0,0.1,0,0.3-0.1,0.4C61.4,53.8,61.3,53.6,61.2,53.4z"/>
<path class="st55" d="M58.4,53.4c0.2,0,0.3,0,0.5,0c0,0.1,0,0.3-0.1,0.4C58.6,53.8,58.5,53.6,58.4,53.4z"/>
<path class="st55" d="M57.7,53.4c0.2,0,0.3,0,0.5,0c0,0.1,0,0.3-0.1,0.4C57.9,53.8,57.8,53.6,57.7,53.4z"/>
<path class="st55" d="M57.1,53.4c0.2,0,0.3,0,0.5,0c0,0.1,0,0.3-0.1,0.4C57.2,53.8,57.2,53.6,57.1,53.4z"/>
<path class="st55" d="M52.3,53.4c0.2,0,0.3,0,0.5,0c0,0.1,0,0.3-0.1,0.4C52.4,53.8,52.4,53.6,52.3,53.4z"/>
<path class="st55" d="M51.6,53.4c0.2,0,0.3,0,0.5,0c0,0.1,0,0.3-0.1,0.4C51.8,53.8,51.7,53.6,51.6,53.4z"/>
<path class="st55" d="M50.9,53.4c0.2,0,0.3,0,0.5,0c0,0.1,0,0.3-0.1,0.4C51.1,53.8,51,53.6,50.9,53.4z"/>
<path class="st55" d="M50.2,53.4c0.2,0,0.3,0,0.5,0c0,0.1,0,0.3-0.1,0.4C50.4,53.8,50.3,53.6,50.2,53.4z"/>
<path class="st55" d="M44.7,53.4c0.1,0,0.2,0,0.3,0c0,0.1,0.1,0.2,0.1,0.4C44.9,53.8,44.8,53.6,44.7,53.4L44.7,53.4z"/>
<path class="st55" d="M46.1,53.4c0.1,0,0.2,0,0.3,0c0,0.1,0.1,0.2,0.1,0.4C46.3,53.8,46.2,53.6,46.1,53.4L46.1,53.4z"/>
<path class="st55" d="M48.2,53.4c0.1,0,0.2,0,0.3,0c0,0.1,0.1,0.2,0.1,0.4C48.3,53.8,48.3,53.6,48.2,53.4L48.2,53.4z"/>
<path class="st55" d="M53,53.4c0.1,0,0.2,0,0.3,0c0,0.1,0.1,0.2,0.1,0.4C53.1,53.8,53.1,53.6,53,53.4L53,53.4z"/>
<path class="st55" d="M59.1,53.4c0.1,0,0.2,0,0.3,0c0,0.1,0.1,0.2,0.1,0.4C59.3,53.8,59.2,53.6,59.1,53.4L59.1,53.4z"/>
<path class="st55" d="M61.8,53.4c0.1,0,0.2,0,0.3,0c0,0.1,0.1,0.2,0.1,0.4C62,53.8,62,53.6,61.8,53.4L61.8,53.4z"/>
<path class="st76" d="M70.9,18.2c-0.3,0-0.6,0.1-0.9-0.1c0.3,0,0.6,0,0.8-0.1c0.2,0.1,0.4-0.1,0.5,0.2
	C71.3,18.2,71.1,18.2,70.9,18.2L70.9,18.2z"/>
<path class="st74" d="M28,18.1c4.7,0,9.4,0,14.1,0c0.3,0,0.6,0,0.9,0c2.3,0,4.7,0,7,0v0.3c-7.1,0-14.3,0-21.4,0
	C28.4,18.4,28,18.5,28,18.1L28,18.1z"/>
</svg>
